<svg width="83" height="90" viewBox="0 0 83 90" fill="none" xmlns="http://www.w3.org/2000/svg">
<g clip-path="url(#clip0_1972_136968)">
<path d="M29.7822 14.9514L27.8298 12.4901C27.3001 11.8229 26.9087 11.0584 26.6784 10.2405C26.4481 9.42259 26.3834 8.56758 26.488 7.72476C26.5926 6.88194 26.8645 6.06801 27.2879 5.32991C27.7113 4.59182 28.2779 3.94417 28.9549 3.42434C30.0856 2.5456 31.4811 2.06888 32.9176 2.07064C33.9049 2.06721 34.88 2.28711 35.7688 2.71361C36.6576 3.1401 37.4366 3.76197 38.0466 4.53192L40.8676 8.15001L43.6969 4.55653C44.209 3.85915 44.8571 3.27091 45.6029 2.82674C46.3486 2.38256 47.1768 2.0915 48.0381 1.97084C48.8995 1.85017 49.7765 1.90236 50.6171 2.12431C51.4577 2.34625 52.2448 2.73343 52.9317 3.26285C53.6185 3.79228 54.1911 4.45316 54.6155 5.20627C55.0398 5.95937 55.3072 6.78935 55.4019 7.64694C55.4966 8.50452 55.4166 9.37223 55.1666 10.1986C54.9166 11.0249 54.5018 11.793 53.9468 12.4573L49.0907 18.6351L40.8759 29.1201L36.086 22.9915" stroke="#EFF3FF" stroke-miterlimit="10"/>
<path d="M33.2729 20.1939C33.7617 20.1939 34.1581 19.8009 34.1581 19.316C34.1581 18.8312 33.7617 18.4382 33.2729 18.4382C32.784 18.4382 32.3877 18.8312 32.3877 19.316C32.3877 19.8009 32.784 20.1939 33.2729 20.1939Z" fill="#EFF3FF" stroke="#EFF3FF" stroke-miterlimit="10"/>
<path d="M28.3428 43.5022C28.3428 39.8774 25.3797 36.9388 21.7246 36.9388C18.0695 36.9388 15.1064 39.8774 15.1064 43.5022V48.5971C15.1064 52.222 18.0695 55.1605 21.7246 55.1605C25.3797 55.1605 28.3428 52.222 28.3428 48.5971V43.5022Z" stroke="#EFF3FF" stroke-miterlimit="10"/>
<path d="M47.4853 43.5022C47.4853 39.8774 44.5223 36.9388 40.8672 36.9388C37.2121 36.9388 34.249 39.8774 34.249 43.5022V48.5971C34.249 52.222 37.2121 55.1605 40.8672 55.1605C44.5223 55.1605 47.4853 52.222 47.4853 48.5971V43.5022Z" stroke="#EFF3FF" stroke-miterlimit="10"/>
<path d="M66.9346 43.5022C66.9346 39.8774 63.9715 36.9388 60.3164 36.9388C56.6613 36.9388 53.6982 39.8774 53.6982 43.5022V48.5971C53.6982 52.222 56.6613 55.1605 60.3164 55.1605C63.9715 55.1605 66.9346 52.222 66.9346 48.5971V43.5022Z" stroke="#EFF3FF" stroke-miterlimit="10"/>
<path d="M18.2412 65.4651C18.2412 61.8402 15.2782 58.9017 11.623 58.9017C7.96793 58.9017 5.00488 61.8402 5.00488 65.4651V70.56C5.00488 74.1848 7.96793 77.1234 11.623 77.1234C15.2782 77.1234 18.2412 74.1848 18.2412 70.56V65.4651Z" stroke="#EFF3FF" stroke-miterlimit="10"/>
<path d="M37.3848 65.4651C37.3848 61.8402 34.4217 58.9017 30.7666 58.9017C27.1115 58.9017 24.1484 61.8402 24.1484 65.4651V70.56C24.1484 74.1848 27.1115 77.1234 30.7666 77.1234C34.4217 77.1234 37.3848 74.1848 37.3848 70.56V65.4651Z" stroke="#EFF3FF" stroke-miterlimit="10"/>
<path d="M56.834 65.4651C56.834 61.8402 53.8709 58.9017 50.2158 58.9017C46.5607 58.9017 43.5977 61.8402 43.5977 65.4651V70.56C43.5977 74.1848 46.5607 77.1234 50.2158 77.1234C53.8709 77.1234 56.834 74.1848 56.834 70.56V65.4651Z" stroke="#EFF3FF" stroke-miterlimit="10"/>
<path d="M76.4648 65.4651C76.4648 61.8402 73.5018 58.9017 69.8467 58.9017C66.1916 58.9017 63.2285 61.8402 63.2285 65.4651V70.56C63.2285 74.1848 66.1916 77.1234 69.8467 77.1234C73.5018 77.1234 76.4648 74.1848 76.4648 70.56V65.4651Z" stroke="#EFF3FF" stroke-miterlimit="10"/>
<path d="M10.7051 58.9673C10.7051 58.9673 12.8643 53.5771 16.3222 52.4039" stroke="#EFF3FF" stroke-miterlimit="10"/>
<path d="M32.8847 58.9673C32.8847 58.9673 30.7256 53.5771 27.2676 52.4039" stroke="#EFF3FF" stroke-miterlimit="10"/>
<path d="M30.6094 58.9673C30.6094 58.9673 32.7686 53.5771 36.2265 52.4039" stroke="#EFF3FF" stroke-miterlimit="10"/>
<path d="M52.7549 58.9673C52.7549 58.9673 50.5957 53.5771 47.1377 52.4039" stroke="#EFF3FF" stroke-miterlimit="10"/>
<path d="M49.6367 58.9673C49.6367 58.9673 51.7959 53.5771 55.2539 52.4039" stroke="#EFF3FF" stroke-miterlimit="10"/>
<path d="M71.7993 58.9673C71.7993 58.9673 69.6401 53.5771 66.1738 52.4039" stroke="#EFF3FF" stroke-miterlimit="10"/>
<path d="M75.7534 74.2108C79.2197 75.3923 81.3706 80.7743 81.3706 80.7743L81.7098 88.6011H1.24121V80.7825C1.24121 80.7825 3.40039 75.3923 6.85837 74.2191" stroke="#EFF3FF" stroke-miterlimit="10"/>
<path d="M25.4639 74.4734C25.4639 74.4734 19.4165 80.7579 20.1032 88.6258" stroke="#EFF3FF" stroke-miterlimit="10"/>
<path d="M45.335 74.4734C45.335 74.4734 39.2876 80.7579 39.9743 88.6258" stroke="#EFF3FF" stroke-miterlimit="10"/>
<path d="M55.6504 74.4734C55.6504 74.4734 61.6977 80.7579 61.0111 88.6094" stroke="#EFF3FF" stroke-miterlimit="10"/>
<path d="M17.2734 73.9729C17.2734 73.9729 21.6001 76.0076 22.3446 78.8955" stroke="#EFF3FF" stroke-miterlimit="10"/>
<path d="M36.4004 74.2108C36.4004 74.2108 40.727 76.2455 41.4716 79.1334" stroke="#EFF3FF" stroke-miterlimit="10"/>
<path d="M63.8983 74.2108C63.8983 74.2108 59.5717 76.2455 58.8271 79.1334" stroke="#EFF3FF" stroke-miterlimit="10"/>
</g>
<defs>
<clipPath id="clip0_1972_136968">
<rect width="83" height="89" fill="white" transform="translate(0 0.839996)"/>
</clipPath>
</defs>
</svg>
