<svg width="101" height="101" viewBox="0 0 101 101" fill="none" xmlns="http://www.w3.org/2000/svg">
<g clip-path="url(#clip0_1972_137089)">
<path d="M50.5203 71.22C62.3668 71.22 71.9703 61.6165 71.9703 49.77C71.9703 37.9235 62.3668 28.32 50.5203 28.32C38.6738 28.32 29.0703 37.9235 29.0703 49.77C29.0703 61.6165 38.6738 71.22 50.5203 71.22Z" stroke="#EFF3FF" stroke-miterlimit="10"/>
<path d="M50.5201 28.32C50.5201 28.32 48.2401 36.49 51.8201 40.7C55.4001 44.91 62.6001 53.16 52.4601 53.4C47.1601 53.53 46.0701 49.51 37.0101 47.59C27.9501 45.67 29.2301 52.42 29.2301 52.42" stroke="#EFF3FF" stroke-miterlimit="10"/>
<path d="M62.7796 41.84C63.9615 41.84 64.9196 40.8819 64.9196 39.7C64.9196 38.5181 63.9615 37.56 62.7796 37.56C61.5978 37.56 60.6396 38.5181 60.6396 39.7C60.6396 40.8819 61.5978 41.84 62.7796 41.84Z" fill="#EFF3FF"/>
<path d="M65.7399 48.01C67.0212 48.01 68.0599 46.9713 68.0599 45.69C68.0599 44.4087 67.0212 43.37 65.7399 43.37C64.4586 43.37 63.4199 44.4087 63.4199 45.69C63.4199 46.9713 64.4586 48.01 65.7399 48.01Z" fill="#EFF3FF"/>
<path d="M49.4499 71.2C49.4499 71.2 49.1999 57.36 58.2299 61.86C58.2299 61.86 63.2299 64.09 64.9299 65.66" stroke="#EFF3FF" stroke-miterlimit="10"/>
<path d="M70.46 41.84H76.67" stroke="#EFF3FF" stroke-miterlimit="10"/>
<path d="M69.8994 59.28H76.6694" stroke="#EFF3FF" stroke-miterlimit="10"/>
<path d="M76.1895 42.05L89.7995 28.75C90.0391 28.5102 90.3236 28.32 90.6367 28.1903C90.9498 28.0605 91.2855 27.9937 91.6245 27.9937C91.9634 27.9937 92.2991 28.0605 92.6122 28.1903C92.9253 28.32 93.2098 28.5102 93.4494 28.75C93.6892 28.9896 93.8794 29.2741 94.0092 29.5873C94.139 29.9004 94.2058 30.236 94.2058 30.575C94.2058 30.914 94.139 31.2496 94.0092 31.5628C93.8794 31.8759 93.6892 32.1604 93.4494 32.4L80.2295 45.63" stroke="#EFF3FF" stroke-miterlimit="10"/>
<path d="M80.2295 55.48L94.0695 66.61C94.3358 66.8205 94.558 67.0814 94.7233 67.3779C94.8887 67.6744 94.9939 68.0006 95.0329 68.3378C95.0719 68.6751 95.044 69.0167 94.9507 69.3431C94.8575 69.6695 94.7007 69.9743 94.4894 70.24C94.0643 70.7772 93.4436 71.1241 92.7633 71.2047C92.0829 71.2852 91.3984 71.093 90.8595 70.67L76.1895 59.07" stroke="#EFF3FF" stroke-miterlimit="10"/>
<path d="M80.2295 45.31V55.8" stroke="#EFF3FF" stroke-miterlimit="10"/>
<path d="M30.4495 41.84H24.2295" stroke="#EFF3FF" stroke-miterlimit="10"/>
<path d="M30.9995 59.28H24.2295" stroke="#EFF3FF" stroke-miterlimit="10"/>
<path d="M24.6794 42.05L11.0794 28.75C10.5938 28.2651 9.93564 27.9928 9.24941 27.9928C8.56319 27.9928 7.90502 28.2651 7.41941 28.75C7.17964 28.9896 6.98943 29.2741 6.85966 29.5872C6.72988 29.9004 6.66309 30.236 6.66309 30.575C6.66309 30.914 6.72988 31.2496 6.85966 31.5627C6.98943 31.8759 7.17964 32.1604 7.41941 32.4L20.6794 45.63" stroke="#EFF3FF" stroke-miterlimit="10"/>
<path d="M20.6801 55.48L6.83012 66.61C6.56376 66.8205 6.34155 67.0814 6.17623 67.3779C6.01091 67.6744 5.90572 68.0006 5.86671 68.3378C5.82769 68.6751 5.85561 69.0167 5.94886 69.3431C6.04211 69.6695 6.19886 69.9743 6.41012 70.24C6.8353 70.7772 7.45599 71.1241 8.13632 71.2047C8.81666 71.2852 9.50121 71.093 10.0401 70.67L24.6801 59.07" stroke="#EFF3FF" stroke-miterlimit="10"/>
<path d="M20.6797 45.31V55.8" stroke="#EFF3FF" stroke-miterlimit="10"/>
<path d="M58.2197 69.61V75.82" stroke="#EFF3FF" stroke-miterlimit="10"/>
<path d="M40.7803 69.06V75.82" stroke="#EFF3FF" stroke-miterlimit="10"/>
<path d="M58.0097 75.35L71.3097 89C71.7945 89.4856 72.0669 90.1438 72.0669 90.83C72.0669 91.5162 71.7945 92.1744 71.3097 92.66C70.8241 93.1449 70.1659 93.4172 69.4797 93.4172C68.7935 93.4172 68.1353 93.1449 67.6497 92.66L54.4297 79.38" stroke="#EFF3FF" stroke-miterlimit="10"/>
<path d="M44.5795 79.38L33.4495 93.22C33.0243 93.7572 32.4036 94.1041 31.7233 94.1847C31.043 94.2653 30.3584 94.073 29.8195 93.65C29.5506 93.4393 29.3261 93.1775 29.1589 92.8796C28.9916 92.5818 28.8849 92.2538 28.8449 91.9145C28.805 91.5752 28.8325 91.2314 28.926 90.9029C29.0194 90.5743 29.177 90.2674 29.3895 90L40.9895 75.33" stroke="#EFF3FF" stroke-miterlimit="10"/>
<path d="M54.7498 79.38H44.2598" stroke="#EFF3FF" stroke-miterlimit="10"/>
<path d="M58.2197 29.6V23.39" stroke="#EFF3FF" stroke-miterlimit="10"/>
<path d="M40.7803 30.16V23.39" stroke="#EFF3FF" stroke-miterlimit="10"/>
<path d="M58.0097 23.87L71.3097 10.26C71.5495 10.0204 71.7397 9.7359 71.8694 9.42276C71.9992 9.10962 72.066 8.77397 72.066 8.435C72.066 8.09603 71.9992 7.76039 71.8694 7.44724C71.7397 7.1341 71.5495 6.8496 71.3097 6.61C70.8241 6.12514 70.1659 5.85281 69.4797 5.85281C68.7935 5.85281 68.1353 6.12514 67.6497 6.61L54.4297 19.83" stroke="#EFF3FF" stroke-miterlimit="10"/>
<path d="M44.5794 19.83L33.4494 6C33.0242 5.4628 32.4035 5.11595 31.7232 5.03536C31.0429 4.95477 30.3583 5.14701 29.8194 5.57C29.2816 5.99696 28.9345 6.61937 28.8539 7.30134C28.7733 7.98331 28.9658 8.66946 29.3894 9.21L40.9894 23.88" stroke="#EFF3FF" stroke-miterlimit="10"/>
<path d="M54.7498 19.83H44.2598" stroke="#EFF3FF" stroke-miterlimit="10"/>
<path d="M49.4997 100.18C53.2663 100.18 56.3197 97.1266 56.3197 93.36C56.3197 89.5934 53.2663 86.54 49.4997 86.54C45.7331 86.54 42.6797 89.5934 42.6797 93.36C42.6797 97.1266 45.7331 100.18 49.4997 100.18Z" stroke="#EFF3FF" stroke-miterlimit="10"/>
<path d="M7.64969 56.24C11.223 56.24 14.1197 53.3433 14.1197 49.77C14.1197 46.1967 11.223 43.3 7.64969 43.3C4.07641 43.3 1.17969 46.1967 1.17969 49.77C1.17969 53.3433 4.07641 56.24 7.64969 56.24Z" stroke="#EFF3FF" stroke-miterlimit="10"/>
<path d="M49.5002 12.68C52.8636 12.68 55.5902 9.95341 55.5902 6.59C55.5902 3.22659 52.8636 0.5 49.5002 0.5C46.1367 0.5 43.4102 3.22659 43.4102 6.59C43.4102 9.95341 46.1367 12.68 49.5002 12.68Z" stroke="#EFF3FF" stroke-miterlimit="10"/>
<path d="M94.4103 56.64C97.7737 56.64 100.5 53.9134 100.5 50.55C100.5 47.1866 97.7737 44.46 94.4103 44.46C91.0469 44.46 88.3203 47.1866 88.3203 50.55C88.3203 53.9134 91.0469 56.64 94.4103 56.64Z" stroke="#EFF3FF" stroke-miterlimit="10"/>
<path d="M91.7297 4.94001C92.8839 4.94001 93.8196 4.00428 93.8196 2.85001C93.8196 1.69573 92.8839 0.76001 91.7297 0.76001C90.5754 0.76001 89.6396 1.69573 89.6396 2.85001C89.6396 4.00428 90.5754 4.94001 91.7297 4.94001Z" fill="#EFF3FF"/>
<path d="M85.8198 12.04C87.4877 12.04 88.8398 10.6879 88.8398 9.02C88.8398 7.3521 87.4877 6 85.8198 6C84.1519 6 82.7998 7.3521 82.7998 9.02C82.7998 10.6879 84.1519 12.04 85.8198 12.04Z" fill="#EFF3FF"/>
<path d="M91.3097 16.85C92.6241 16.85 93.6897 15.7844 93.6897 14.47C93.6897 13.1556 92.6241 12.09 91.3097 12.09C89.9952 12.09 88.9297 13.1556 88.9297 14.47C88.9297 15.7844 89.9952 16.85 91.3097 16.85Z" fill="#EFF3FF"/>
<path d="M97.2202 11.7C98.8881 11.7 100.24 10.3479 100.24 8.68C100.24 7.0121 98.8881 5.66 97.2202 5.66C95.5523 5.66 94.2002 7.0121 94.2002 8.68C94.2002 10.3479 95.5523 11.7 97.2202 11.7Z" fill="#EFF3FF"/>
<path d="M91.9503 88.53C93.1046 88.53 94.0404 87.5943 94.0404 86.44C94.0404 85.2857 93.1046 84.35 91.9503 84.35C90.7961 84.35 89.8604 85.2857 89.8604 86.44C89.8604 87.5943 90.7961 88.53 91.9503 88.53Z" fill="#EFF3FF"/>
<path d="M86.0298 95.63C87.6977 95.63 89.0498 94.2779 89.0498 92.61C89.0498 90.9421 87.6977 89.59 86.0298 89.59C84.3619 89.59 83.0098 90.9421 83.0098 92.61C83.0098 94.2779 84.3619 95.63 86.0298 95.63Z" fill="#EFF3FF"/>
<path d="M91.5196 100.44C92.8341 100.44 93.8997 99.3744 93.8997 98.06C93.8997 96.7456 92.8341 95.68 91.5196 95.68C90.2052 95.68 89.1396 96.7456 89.1396 98.06C89.1396 99.3744 90.2052 100.44 91.5196 100.44Z" fill="#EFF3FF"/>
<path d="M97.4399 95.29C99.1078 95.29 100.46 93.9379 100.46 92.27C100.46 90.6021 99.1078 89.25 97.4399 89.25C95.772 89.25 94.4199 90.6021 94.4199 92.27C94.4199 93.9379 95.772 95.29 97.4399 95.29Z" fill="#EFF3FF"/>
<path d="M9.3898 4.88999C10.5441 4.88999 11.4798 3.95427 11.4798 2.79999C11.4798 1.64572 10.5441 0.709991 9.3898 0.709991C8.23553 0.709991 7.2998 1.64572 7.2998 2.79999C7.2998 3.95427 8.23553 4.88999 9.3898 4.88999Z" fill="#EFF3FF"/>
<path d="M15.31 11.99C16.9779 11.99 18.33 10.6379 18.33 8.97001C18.33 7.30211 16.9779 5.95001 15.31 5.95001C13.6421 5.95001 12.29 7.30211 12.29 8.97001C12.29 10.6379 13.6421 11.99 15.31 11.99Z" fill="#EFF3FF"/>
<path d="M9.81945 16.8C11.1339 16.8 12.1995 15.7344 12.1995 14.42C12.1995 13.1056 11.1339 12.04 9.81945 12.04C8.50502 12.04 7.43945 13.1056 7.43945 14.42C7.43945 15.7344 8.50502 16.8 9.81945 16.8Z" fill="#EFF3FF"/>
<path d="M3.89988 11.65C5.56778 11.65 6.91988 10.2979 6.91988 8.62999C6.91988 6.96209 5.56778 5.60999 3.89988 5.60999C2.23198 5.60999 0.879883 6.96209 0.879883 8.62999C0.879883 10.2979 2.23198 11.65 3.89988 11.65Z" fill="#EFF3FF"/>
<path d="M9.60953 88.48C10.7638 88.48 11.6995 87.5443 11.6995 86.39C11.6995 85.2357 10.7638 84.3 9.60953 84.3C8.45526 84.3 7.51953 85.2357 7.51953 86.39C7.51953 87.5443 8.45526 88.48 9.60953 88.48Z" fill="#EFF3FF"/>
<path d="M15.52 95.58C17.1879 95.58 18.54 94.2279 18.54 92.56C18.54 90.8921 17.1879 89.54 15.52 89.54C13.8521 89.54 12.5 90.8921 12.5 92.56C12.5 94.2279 13.8521 95.58 15.52 95.58Z" fill="#EFF3FF"/>
<path d="M10.0294 100.39C11.3439 100.39 12.4094 99.3244 12.4094 98.01C12.4094 96.6956 11.3439 95.63 10.0294 95.63C8.71498 95.63 7.64941 96.6956 7.64941 98.01C7.64941 99.3244 8.71498 100.39 10.0294 100.39Z" fill="#EFF3FF"/>
<path d="M4.11961 95.24C5.78751 95.24 7.13961 93.8879 7.13961 92.22C7.13961 90.5521 5.78751 89.2 4.11961 89.2C2.45171 89.2 1.09961 90.5521 1.09961 92.22C1.09961 93.8879 2.45171 95.24 4.11961 95.24Z" fill="#EFF3FF"/>
</g>
<defs>
<clipPath id="clip0_1972_137089">
<rect width="100.32" height="100.68" fill="white" transform="translate(0.679688)"/>
</clipPath>
</defs>
</svg>
