<svg width="99" height="93" viewBox="0 0 99 93" fill="none" xmlns="http://www.w3.org/2000/svg">
<path d="M35.5026 10.66V23.5H31.3726C30.142 23.5 28.9618 23.9889 28.0917 24.859C27.2215 25.7292 26.7326 26.9094 26.7326 28.14C26.7326 29.3706 27.2215 30.5508 28.0917 31.421C28.9618 32.2911 30.142 32.78 31.3726 32.78H35.5026V41.71H10.7326C6.82264 24.71 23.1826 9.13 36.0026 10.71" stroke="#EFF3FF" stroke-miterlimit="10"/>
<path d="M46.9531 26.31V35.24H71.7131C75.6331 18.24 59.2631 2.66 46.4531 4.24" stroke="#EFF3FF" stroke-miterlimit="10"/>
<path d="M47.4534 17.03H43.3734C42.1428 17.03 40.9626 17.5189 40.0924 18.389C39.2223 19.2592 38.7334 20.4394 38.7334 21.67C38.7334 22.9006 39.2223 24.0808 40.0924 24.951C40.9626 25.8211 42.1428 26.31 43.3734 26.31H47.5034" stroke="#EFF3FF" stroke-miterlimit="10"/>
<path d="M46.9531 4.18997V17.03" stroke="#EFF3FF" stroke-width="2" stroke-miterlimit="10"/>
<path d="M76.7832 20.41L72.9932 20.35C68.8232 20.28 67.8832 17.2 64.5632 14.65C61.2432 12.1 56.9032 15.75 62.3532 22.48C67.8032 29.21 80.0532 30.65 81.1632 30.9C82.2732 31.15 88.0532 37.97 88.0532 37.97V19.66C88.0532 19.66 82.0532 15.66 80.3132 11.75C78.7132 8.12999 61.7532 -2.16001 55.4632 1.70999C50.7232 4.70999 55.3332 6.53999 57.9032 7.28999C59.0517 7.61989 60.125 8.17011 61.0632 8.90999C64.8756 11.9121 68.071 15.6237 70.4732 19.84" stroke="#EFF3FF" stroke-miterlimit="10"/>
<path d="M97.6727 19.66H88.0527V38.86H97.6727V19.66Z" stroke="#EFF3FF" stroke-miterlimit="10"/>
<path d="M35.5034 41.71H10.7334C10.7334 41.71 15.6734 56.55 23.1134 63.15C23.1134 63.15 31.7534 70.01 32.2634 77.15C32.7734 84.29 32.4334 93.02 45.0334 91.73C45.0334 91.73 50.7334 90.73 51.3634 77.46C51.4118 76.573 51.5869 75.6974 51.8834 74.86C52.8834 71.96 55.4234 65.39 58.8834 61.58C59.9065 60.4787 60.8053 59.268 61.5634 57.97C63.5634 54.46 66.9134 47.65 67.3934 41.73L35.5034 41.71Z" stroke="#EFF3FF" stroke-miterlimit="10"/>
<path d="M32.2627 76.86H51.3827" stroke="#EFF3FF" stroke-width="2" stroke-miterlimit="10"/>
<path d="M32.8535 83.23H50.5735" stroke="#EFF3FF" stroke-width="2" stroke-miterlimit="10"/>
<path d="M10.143 67.07H1.37305V89.2H10.143V67.07Z" stroke="#EFF3FF" stroke-miterlimit="10"/>
<path d="M10.1433 68.92C10.1433 68.92 15.5533 64.14 19.7133 63.92C23.8733 63.7 41.8233 63.92 41.8233 63.92C42.3434 63.9569 42.8506 64.099 43.3141 64.3379C43.7776 64.5767 44.1878 64.9071 44.5198 65.3092C44.8517 65.7113 45.0985 66.1767 45.2453 66.677C45.392 67.1774 45.4355 67.7023 45.3733 68.22C45.1133 72.31 35.8633 71.67 35.8633 71.67C34.7371 73.2368 33.5077 74.7268 32.1833 76.13C32.1833 76.13 29.8633 88.48 39.5633 91.84H21.1133C21.1133 91.84 12.8933 89.84 10.1133 86.99L10.1433 68.92Z" stroke="#EFF3FF" stroke-miterlimit="10"/>
<path d="M57.5535 73.5H51.0335C49.5313 73.5 48.3135 74.7178 48.3135 76.22V76.23C48.3135 77.7322 49.5313 78.95 51.0335 78.95H57.5535C59.0557 78.95 60.2735 77.7322 60.2735 76.23V76.22C60.2735 74.7178 59.0557 73.5 57.5535 73.5Z" stroke="#EFF3FF" stroke-miterlimit="10"/>
<path d="M56.7528 64.22H64.1028C64.8242 64.22 65.516 64.5065 66.0261 65.0166C66.5362 65.5267 66.8228 66.2186 66.8228 66.94C66.8228 67.6614 66.5362 68.3532 66.0261 68.8633C65.516 69.3734 64.8242 69.66 64.1028 69.66H53.8428" stroke="#EFF3FF" stroke-miterlimit="10"/>
<path d="M57.5535 79.5H51.0335C49.5313 79.5 48.3135 80.7178 48.3135 82.22V82.23C48.3135 83.7322 49.5313 84.95 51.0335 84.95H57.5535C59.0557 84.95 60.2735 83.7322 60.2735 82.23V82.22C60.2735 80.7178 59.0557 79.5 57.5535 79.5Z" stroke="#EFF3FF" stroke-miterlimit="10"/>
<path d="M57.5535 84.95H51.0335C49.5313 84.95 48.3135 86.1678 48.3135 87.67V87.68C48.3135 89.1822 49.5313 90.4 51.0335 90.4H57.5535C59.0557 90.4 60.2735 89.1822 60.2735 87.68V87.67C60.2735 86.1678 59.0557 84.95 57.5535 84.95Z" stroke="#EFF3FF" stroke-miterlimit="10"/>
<path d="M35.5029 41.71V48.18" stroke="#EFF3FF" stroke-miterlimit="10"/>
<path d="M35.5029 57.5V63.77" stroke="#EFF3FF" stroke-width="2" stroke-miterlimit="10"/>
<path d="M35.0029 48.18H41.3729C41.9866 48.1773 42.5947 48.2959 43.1624 48.5289C43.7301 48.7619 44.2461 49.1048 44.681 49.5378C45.1158 49.9707 45.4609 50.4854 45.6963 51.052C45.9317 51.6187 46.0529 52.2263 46.0529 52.84C46.0529 53.4536 45.9317 54.0612 45.6963 54.6279C45.4609 55.1946 45.1158 55.7092 44.681 56.1422C44.2461 56.5752 43.7301 56.918 43.1624 57.151C42.5947 57.384 41.9866 57.5026 41.3729 57.5H35.0029" stroke="#EFF3FF" stroke-miterlimit="10"/>
</svg>
