<svg width="101" height="101" viewBox="0 0 101 101" fill="none" xmlns="http://www.w3.org/2000/svg">
<g clip-path="url(#clip0_1976_137280)">
<path d="M4.04688 50.13V89.79H31.0469V50.13H4.04688ZM11.2069 56.2H13.8769V64.06H11.1569L11.2069 56.2ZM14.0469 83.72H11.3669V75.86H14.0469V83.72ZM14.0469 73.89H11.3669V66.03H14.0469V73.89ZM20.8369 56.2H23.4969V64.06H20.8169L20.8369 56.2ZM23.7069 83.72H21.0469V75.86H23.7169L23.7069 83.72ZM23.7069 73.89H21.0469V66.03H23.7169L23.7069 73.89Z" stroke="#EFF3FF" stroke-miterlimit="10"/>
<path d="M31.0469 50.13V89.79H43.9469V67.53H57.6769V89.79H71.3169V50.13H31.0469ZM47.4269 62.24H44.7469V54.35H47.4269V62.24ZM57.1769 62.24H54.4969V54.35H57.1769V62.24Z" stroke="#EFF3FF" stroke-miterlimit="10"/>
<path d="M71.3164 50.13V89.79H97.5264V50.13H71.3164ZM77.2064 56.2H79.8764V64.06H77.2064V56.2ZM80.0464 83.72H77.4164V75.86H80.0464V83.72ZM80.0464 73.89H77.4164V66.03H80.0464V73.89ZM86.8264 56.2H89.4864V64.06H86.8664L86.8264 56.2ZM89.6964 83.72H87.0464V75.86H89.7064L89.6964 83.72ZM89.6964 73.89H87.0464V66.03H89.7064L89.6964 73.89Z" stroke="#EFF3FF" stroke-miterlimit="10"/>
<path d="M4.60687 89.79H27.5469V97.92H4.60687C3.5301 97.92 2.49742 97.4922 1.73602 96.7308C0.974624 95.9694 0.546875 94.9368 0.546875 93.86C0.546875 92.7832 0.974624 91.7505 1.73602 90.9891C2.49742 90.2277 3.5301 89.8 4.60687 89.8V89.79Z" stroke="#EFF3FF" stroke-miterlimit="10"/>
<path d="M73.9469 89.79H27.5469V99.51H73.9469V89.79Z" stroke="#EFF3FF" stroke-miterlimit="10"/>
<path d="M73.9473 89.79H95.7373C96.814 89.79 97.8467 90.2177 98.6081 90.9791C99.3695 91.7405 99.7973 92.7732 99.7973 93.85C99.7973 94.9268 99.3695 95.9594 98.6081 96.7208C97.8467 97.4822 96.814 97.91 95.7373 97.91H73.9473V89.79Z" stroke="#EFF3FF" stroke-miterlimit="10"/>
<path d="M74.3772 43.99H27.1372C26.3602 43.6451 25.6979 43.0854 25.2284 42.3767C24.7589 41.668 24.5017 40.8399 24.4872 39.99C24.3871 38.7587 24.3871 37.5213 24.4872 36.29C24.6772 35.19 33.0972 26.59 33.0972 26.59H67.1472L77.3372 36.35C77.546 37.4696 77.4997 38.6219 77.202 39.7213C76.9042 40.8206 76.3625 41.8387 75.6172 42.7C75.258 43.1789 74.8416 43.6121 74.3772 43.99Z" stroke="#EFF3FF" stroke-miterlimit="10"/>
<path d="M24.4873 36.34H77.3373" stroke="#EFF3FF" stroke-miterlimit="10"/>
<path d="M27.6064 8.67997L50.7564 1.18997L74.3764 8.33997L52.5864 16.43L27.6064 8.67997Z" stroke="#EFF3FF" stroke-miterlimit="10"/>
<path d="M66.1164 11.41V26.64H35.5664V11.15" stroke="#EFF3FF" stroke-miterlimit="10"/>
<path d="M74.3772 8.33997C74.3772 8.33997 70.3772 13.6 72.9972 17.11C75.6172 20.62 75.8072 17.11 74.3772 17.11" stroke="#EFF3FF" stroke-miterlimit="10"/>
<path d="M77.477 37.85H90.477L97.527 50.13H73.917V43.99" stroke="#EFF3FF" stroke-miterlimit="10"/>
<path d="M27.6071 43.99V50.13H3.99707L9.79707 37.85H24.3971" stroke="#EFF3FF" stroke-miterlimit="10"/>
</g>
<defs>
<clipPath id="clip0_1976_137280">
<rect width="100.26" height="99.34" fill="white" transform="translate(0.046875 0.669983)"/>
</clipPath>
</defs>
</svg>
