<svg width="80" height="80" viewBox="0 0 80 80" fill="none" xmlns="http://www.w3.org/2000/svg">
<rect width="80" height="80" rx="8" fill="url(#paint0_linear_2427_102888)"/>
<g clip-path="url(#clip0_2427_102888)">
<path d="M21.0299 50.0625L22.3015 47.6875L34.1808 25.6562C34.1808 25.6562 40.3458 19.5937 45.6094 25.0937L58.6798 48.0781C58.6798 48.0781 62.1245 59.8125 51.0339 57.8906C51.0339 57.8906 39.8629 46.3281 30.3176 57.8906C30.3176 57.8906 19.0661 60.6718 21.0299 50.0625Z" stroke="url(#paint1_linear_2427_102888)" stroke-width="3" stroke-miterlimit="10"/>
<path d="M22.3177 47.6875C22.3177 47.6875 22.028 56.125 30.0763 52.0469C31.7986 50.8438 36.9978 47.5781 43.6457 48.4063C45.5612 48.6406 47.1869 49.1719 48.4908 49.7344C45.6899 44.4219 42.873 39.0938 40.0722 33.7812L35.4203 43.9219C38.5592 43.6719 41.7141 43.4219 44.8529 43.1719" stroke="url(#paint2_linear_2427_102888)" stroke-width="3" stroke-miterlimit="10"/>
<path d="M35.4203 43.9219C34.3579 44.2031 33.215 44.5469 32.0239 44.9687C30.4464 45.5312 29.0138 46.125 27.7422 46.7344C27.9997 46.2656 28.2734 45.7969 28.5309 45.3281C32.0722 38.9844 35.5973 32.6406 39.1225 26.2812C39.1225 26.2812 41.3438 22.0469 45.6094 25.0781" stroke="url(#paint3_linear_2427_102888)" stroke-width="3" stroke-miterlimit="10"/>
<path d="M40.0723 33.8438L42.5833 28.6094L53.2071 49.3906C53.2071 49.3906 55.4445 58.3281 49.1346 56.3906" stroke="url(#paint4_linear_2427_102888)" stroke-width="3" stroke-miterlimit="10"/>
</g>
<defs>
<linearGradient id="paint0_linear_2427_102888" x1="5" y1="80" x2="80" y2="6.5" gradientUnits="userSpaceOnUse">
<stop stop-color="#2B32B2"/>
<stop offset="1" stop-color="#1488CC"/>
</linearGradient>
<linearGradient id="paint1_linear_2427_102888" x1="39.9927" y1="22.787" x2="39.9927" y2="58.2196" gradientUnits="userSpaceOnUse">
<stop stop-color="white"/>
<stop offset="1" stop-color="#CCCCCC"/>
</linearGradient>
<linearGradient id="paint2_linear_2427_102888" x1="35.4036" y1="33.7812" x2="35.4036" y2="53.1602" gradientUnits="userSpaceOnUse">
<stop stop-color="white"/>
<stop offset="1" stop-color="#CCCCCC"/>
</linearGradient>
<linearGradient id="paint3_linear_2427_102888" x1="36.6758" y1="23.9849" x2="36.6758" y2="46.7344" gradientUnits="userSpaceOnUse">
<stop stop-color="white"/>
<stop offset="1" stop-color="#CCCCCC"/>
</linearGradient>
<linearGradient id="paint4_linear_2427_102888" x1="46.8323" y1="28.6094" x2="46.8323" y2="56.6656" gradientUnits="userSpaceOnUse">
<stop stop-color="white"/>
<stop offset="1" stop-color="#CCCCCC"/>
</linearGradient>
<clipPath id="clip0_2427_102888">
<rect width="40" height="37" fill="white" transform="translate(20 22)"/>
</clipPath>
</defs>
</svg>
