<svg width="81" height="80" viewBox="0 0 81 80" fill="none" xmlns="http://www.w3.org/2000/svg">
<rect x="0.666992" width="80" height="80" rx="8" fill="url(#paint0_linear_2427_103071)"/>
<path d="M30.9617 39.5215C34.0776 40.7334 37.3648 41.3168 40.667 41.2439C43.9692 41.3163 47.2564 40.7324 50.3723 39.5201C52.8045 38.4705 53.667 37.3039 53.667 36.6326V31.5C52.8167 32.1301 51.9044 32.6513 50.9477 33.0535C47.651 34.3597 44.1682 34.9965 40.667 34.9333C37.1661 34.9953 33.6836 34.3595 30.3863 33.0564C29.4291 32.6541 28.5168 32.1319 27.667 31.5V36.6253C27.667 37.3097 28.5321 38.4705 30.9617 39.5215Z" fill="url(#paint1_linear_2427_103071)"/>
<path d="M30.9617 48.6186C32.0624 49.0581 33.1976 49.3967 34.3542 49.6308C36.4342 50.0521 38.5485 50.2593 40.667 50.2496C42.7854 50.2598 44.8998 50.053 46.9797 49.6322C48.1364 49.3981 49.2715 49.0594 50.3723 48.6199C52.8045 47.6268 53.667 46.523 53.667 45.8878V41.2568C52.9641 41.6996 52.2253 42.0768 51.4592 42.3838C47.9959 43.6676 44.3404 44.289 40.667 44.2185C36.9932 44.2868 33.3377 43.6631 29.8748 42.377C29.109 42.0691 28.3703 41.692 27.667 41.25V45.8851C27.667 46.5216 28.5321 47.6213 30.9617 48.6186Z" fill="url(#paint2_linear_2427_103071)"/>
<path d="M40.667 60C47.8435 60 53.667 57.4738 53.667 54.3595V50.25C53.0276 50.6779 52.3577 51.047 51.6641 51.3538L51.4592 51.445C47.9966 52.8103 44.341 53.4732 40.667 53.402C36.9929 53.4753 33.3369 52.8123 29.8748 51.445C29.8043 51.4161 29.7364 51.3827 29.6699 51.3538C28.9763 51.047 28.3064 50.6779 27.667 50.25V54.3595C27.667 57.4738 33.4904 60 40.667 60Z" fill="url(#paint3_linear_2427_103071)"/>
<path d="M40.667 31.5C47.8467 31.5 53.667 29.1495 53.667 26.25C53.667 23.3505 47.8467 21 40.667 21C33.4873 21 27.667 23.3505 27.667 26.25C27.667 29.1495 33.4873 31.5 40.667 31.5Z" fill="white"/>
<defs>
<linearGradient id="paint0_linear_2427_103071" x1="5.66699" y1="80" x2="80.667" y2="6.5" gradientUnits="userSpaceOnUse">
<stop stop-color="#2B32B2"/>
<stop offset="1" stop-color="#1488CC"/>
</linearGradient>
<linearGradient id="paint1_linear_2427_103071" x1="40.667" y1="31.5" x2="40.667" y2="41.25" gradientUnits="userSpaceOnUse">
<stop stop-color="white" stop-opacity="0.95"/>
<stop offset="1" stop-color="white" stop-opacity="0.85"/>
</linearGradient>
<linearGradient id="paint2_linear_2427_103071" x1="40.667" y1="41.25" x2="40.667" y2="50.25" gradientUnits="userSpaceOnUse">
<stop stop-color="white" stop-opacity="0.85"/>
<stop offset="1" stop-color="white" stop-opacity="0.75"/>
</linearGradient>
<linearGradient id="paint3_linear_2427_103071" x1="40.667" y1="50.25" x2="40.667" y2="60" gradientUnits="userSpaceOnUse">
<stop stop-color="white" stop-opacity="0.75"/>
<stop offset="1" stop-color="#CCCCCC"/>
</linearGradient>
</defs>
</svg>
