<svg width="80" height="80" viewBox="0 0 80 80" fill="none" xmlns="http://www.w3.org/2000/svg">
<rect width="80" height="80" rx="8" fill="url(#paint0_linear_2427_122495)"/>
<path d="M30.2947 39.5215C33.4106 40.7334 36.6978 41.3168 40 41.2439C43.3023 41.3163 46.5894 40.7324 49.7053 39.5201C52.1375 38.4705 53 37.3039 53 36.6326V31.5C52.1497 32.1301 51.2374 32.6513 50.2807 33.0535C46.984 34.3597 43.5012 34.9965 40 34.9333C36.4991 34.9953 33.0166 34.3595 29.7193 33.0564C28.7621 32.6541 27.8498 32.1319 27 31.5V36.6253C27 37.3097 27.8651 38.4705 30.2947 39.5215Z" fill="url(#paint1_linear_2427_122495)"/>
<path d="M30.2947 48.6186C31.3955 49.0581 32.5306 49.3967 33.6872 49.6308C35.7672 50.0521 37.8815 50.2593 40 50.2496C42.1184 50.2598 44.2328 50.053 46.3128 49.6322C47.4694 49.3981 48.6045 49.0594 49.7053 48.6199C52.1375 47.6268 53 46.523 53 45.8878V41.2568C52.2971 41.6996 51.5583 42.0768 50.7922 42.3838C47.3289 43.6676 43.6734 44.289 40 44.2185C36.3262 44.2868 32.6707 43.6631 29.2078 42.377C28.442 42.0691 27.7033 41.692 27 41.25V45.8851C27 46.5216 27.8651 47.6213 30.2947 48.6186Z" fill="url(#paint2_linear_2427_122495)"/>
<path d="M40 60C47.1766 60 53 57.4738 53 54.3595V50.25C52.3606 50.6779 51.6907 51.047 50.9971 51.3538L50.7922 51.445C47.3296 52.8103 43.674 53.4732 40 53.402C36.3259 53.4753 32.6699 52.8123 29.2078 51.445C29.1373 51.4161 29.0695 51.3827 29.0029 51.3538C28.3093 51.047 27.6394 50.6779 27 50.25V54.3595C27 57.4738 32.8234 60 40 60Z" fill="url(#paint3_linear_2427_122495)"/>
<path d="M40 31.5C47.1797 31.5 53 29.1495 53 26.25C53 23.3505 47.1797 21 40 21C32.8203 21 27 23.3505 27 26.25C27 29.1495 32.8203 31.5 40 31.5Z" fill="white"/>
<defs>
<linearGradient id="paint0_linear_2427_122495" x1="5" y1="80" x2="80" y2="6.5" gradientUnits="userSpaceOnUse">
<stop stop-color="#2B32B2"/>
<stop offset="1" stop-color="#1488CC"/>
</linearGradient>
<linearGradient id="paint1_linear_2427_122495" x1="40" y1="31.5" x2="40" y2="41.25" gradientUnits="userSpaceOnUse">
<stop stop-color="white" stop-opacity="0.95"/>
<stop offset="1" stop-color="white" stop-opacity="0.85"/>
</linearGradient>
<linearGradient id="paint2_linear_2427_122495" x1="40" y1="41.25" x2="40" y2="50.25" gradientUnits="userSpaceOnUse">
<stop stop-color="white" stop-opacity="0.85"/>
<stop offset="1" stop-color="white" stop-opacity="0.75"/>
</linearGradient>
<linearGradient id="paint3_linear_2427_122495" x1="40" y1="50.25" x2="40" y2="60" gradientUnits="userSpaceOnUse">
<stop stop-color="white" stop-opacity="0.75"/>
<stop offset="1" stop-color="#CCCCCC"/>
</linearGradient>
</defs>
</svg>
