<svg width="1112" height="756" viewBox="0 0 1112 756" fill="none" xmlns="http://www.w3.org/2000/svg">
<g clip-path="url(#clip0_1622_104450)">
<path d="M941.531 422.221H737.209L796.839 482.449L667.269 613.319L752.331 699.235L881.901 568.365L941.531 628.593V422.221Z" fill="#1C3CA1"/>
<path d="M723.892 506.835H635.994L661.656 532.726L605.921 589.02L642.524 625.961L698.23 569.696L723.892 595.586V506.835Z" fill="#031544"/>
<path d="M1057.24 399.339H1009.52L1023.47 413.398L993.199 443.946L1013.08 463.993L1043.32 433.445L1057.24 447.504V399.339Z" fill="#031544"/>
<path d="M964.587 688.011H944.481L950.353 693.942L937.607 706.815L945.971 715.262L958.716 702.389L964.587 708.319V688.011Z" fill="#031544"/>
<path d="M945.283 358.377H925.177L931.049 364.278L918.304 377.18L926.667 385.627L939.412 372.754L945.283 378.655V358.377Z" fill="#031544"/>
<path d="M825.622 533.825H797.755L805.889 542.04L788.218 559.86L799.817 571.576L817.488 553.727L825.622 561.943V533.825Z" fill="#031544"/>
<path d="M1057.24 556.736H994.688L1012.93 575.192L973.265 615.257L999.299 641.553L1038.97 601.488L1057.24 619.915V556.736Z" fill="#1C3CA1"/>
<path d="M657.245 658.36H636.451L642.523 664.493L629.349 677.8L637.998 686.536L651.173 673.229L657.245 679.362V658.36Z" fill="#1C3CA1"/>
<path d="M566.798 589.077H519.999L533.66 602.876L503.989 632.845L523.464 652.545L553.136 622.547L566.798 636.346V589.077Z" fill="#1C3CA1"/>
<path d="M894.962 512.939H879.266L883.849 517.567L873.911 527.605L880.441 534.201L890.379 524.163L894.962 528.762V512.939Z" fill="white"/>
<path d="M807.579 703.111H791.884L796.467 707.74L786.528 717.778L793.03 724.374L802.997 714.336L807.579 718.964V703.111Z" fill="white"/>
<path d="M1112 488.292H1077.09L1087.28 498.591L1065.12 520.952L1079.66 535.647L1101.8 513.286L1112 523.584V488.292Z" fill="#1C3CA1"/>
<path d="M678.009 390.197H643.554L653.607 400.351L631.783 422.394L646.104 436.887L667.956 414.815L678.009 424.969V390.197Z" fill="#1C3CA1"/>
<path d="M872.622 288.891C872.622 288.891 874.856 289.788 875.801 291.177C876.775 292.594 877.634 294.33 878.178 295.834C879.267 298.872 879.582 301.88 879.782 302.43C880.011 303.008 879.267 303.934 878.407 303.703C877.52 303.471 876.775 300.347 876.574 299.682C876.231 298.524 876.173 297.309 875.744 297.772C875.314 298.235 875.429 300.781 875.429 301.996C875.429 303.211 875.372 306.624 875.056 308.736C874.827 310.211 874.283 311.253 873.624 311.108C872.966 310.963 872.651 309.748 872.708 308.823C872.765 307.926 873.08 302.256 872.994 302.025C872.88 301.62 872.479 310.443 872.221 311.397C871.963 312.323 870.044 312.959 869.901 310.761C869.758 308.562 870.159 301.938 870.13 301.822C870.016 301.562 869.529 309.286 869.386 310.153C869.242 311.021 867.925 311.687 867.495 310.298C867.066 308.91 867.667 301.359 867.61 301.128C867.495 300.578 867.266 302.574 867.152 304.05C867.037 305.727 866.837 307.376 866.292 307.608C865.405 307.984 864.86 306.971 865.09 304.715C865.319 302.459 865.204 297.309 865.233 296.152C865.261 294.966 866.121 291.9 866.35 291.148C866.35 290.772 866.35 290.627 866.321 290.193C866.235 289.325 866.636 288.978 867.524 288.689L870.331 287.792C871.305 287.503 872.307 287.966 872.622 288.891Z" fill="#E8C0A8"/>
<path d="M875.543 287.908C875.83 286.288 874.713 258.141 873.796 247.09C872.536 231.527 870.531 218.336 867.81 208.876C864.603 197.624 858.474 195.685 856.096 195.975C849.452 196.785 854.091 202.802 853.118 211.191C852.545 215.993 862.798 242.259 862.827 245.644C862.856 249 865.089 284.292 865.118 288.11C865.261 289.181 875.371 288.776 875.543 287.908Z" fill="#D7D7D7"/>
<path d="M880.698 412.241C880.698 412.241 872.221 408.104 870.732 405.124C870.732 405.124 866.035 405.124 864.717 409.868C864.717 409.868 858.302 410.997 855.037 407.178L854.263 419.444L892.785 419.415C891.725 416.58 890.895 413.513 880.698 412.241Z" fill="#2D2A25"/>
<path d="M855.065 407.149C855.724 407.93 856.469 408.538 857.299 408.885C858.244 411.373 860.02 416.001 862.827 419.415H854.263L855.065 407.149Z" fill="#2D2A25"/>
<path d="M854.263 419.415L854.063 422.25L892.986 422.221C893.043 421.092 893.272 420.514 892.785 419.386L854.263 419.415Z" fill="#EFEDED"/>
<path d="M834.816 417.419L832.926 409.926C832.926 409.926 831.15 404.806 825.651 404.806C820.152 404.806 818.376 409.926 818.376 409.926L817.03 418.286L834.816 417.419Z" fill="#2D2A25"/>
<path d="M835.533 419.501C835.619 420.08 835.647 421.092 834.988 422.134H817.26C817.26 422.134 816.658 420.977 816.687 419.444L835.533 419.501Z" fill="#EAE7E4"/>
<path d="M816.687 419.357C816.773 417.737 820.152 412.79 825.823 412.79C833.069 412.79 834.73 416.927 835.389 419.096C835.389 419.096 835.475 419.27 835.504 419.588L816.658 419.559C816.687 419.472 816.687 419.415 816.687 419.357Z" fill="#2D2A25"/>
<path d="M873.51 277.841L874.198 407.467C874.198 407.467 864.145 412.559 854.693 408.595L851.085 300.694L848.278 300.549L834.616 408.595C834.616 408.595 827.399 411.864 816.716 407.901L827.542 277.812H873.51V277.841Z" fill="#00283E"/>
<path d="M827.542 277.841H873.625V295.95C869.844 297.628 862.226 300.318 851.228 302.256L851.113 300.694L848.306 300.549L847.991 302.777C841.576 303.76 834.101 304.455 825.537 304.628L827.542 277.841Z" fill="#071A29"/>
<path d="M839.571 357.711H791.655C788.104 357.711 785.24 354.818 785.24 351.231V322.969H845.986V351.231C845.986 354.818 843.122 357.711 839.571 357.711Z" fill="#333232"/>
<path d="M838.769 331.242H792.457C788.476 331.242 785.24 327.973 785.24 323.952V318.774C785.24 314.753 788.476 311.484 792.457 311.484H838.769C842.75 311.484 845.986 314.753 845.986 318.774V323.952C845.986 327.973 842.75 331.242 838.769 331.242Z" fill="#1D1D1B"/>
<path d="M838.769 330.027H792.457C788.476 330.027 785.24 326.758 785.24 322.737V317.559C785.24 313.538 788.476 310.269 792.457 310.269H838.769C842.75 310.269 845.986 313.538 845.986 317.559V322.737C845.986 326.758 842.75 330.027 838.769 330.027Z" fill="#454444"/>
<path d="M815.599 323.46C809.584 323.46 804.715 318.514 804.715 312.468C804.715 306.393 809.613 301.475 815.599 301.475C821.585 301.475 826.482 306.422 826.482 312.468C826.511 318.514 821.613 323.46 815.599 323.46ZM815.599 304.975C811.532 304.975 808.209 308.331 808.209 312.439C808.209 316.547 811.532 319.902 815.599 319.902C819.666 319.902 822.988 316.547 822.988 312.439C822.988 308.331 819.694 304.975 815.599 304.975Z" fill="#454444"/>
<path d="M817.89 334.251H812.906C812.047 334.251 811.331 333.527 811.331 332.659V330.143C811.331 329.275 812.047 328.552 812.906 328.552H817.89C818.749 328.552 819.465 329.275 819.465 330.143V332.659C819.465 333.527 818.778 334.251 817.89 334.251Z" fill="#6B686C"/>
<path d="M844.841 338.619C844.841 338.619 844.841 351.983 844.841 353.517C844.841 355.05 843.753 357.046 840.803 357.046C837.853 357.046 823.819 357.046 823.819 357.046C823.819 357.046 839.027 356.265 840.201 356.062C841.347 355.889 843.352 355.079 843.581 353.141C843.81 351.173 844.841 338.619 844.841 338.619Z" fill="#454444"/>
<path d="M851.944 190.854L852.144 199.446L840.86 199.851L840.602 188.656C845.356 191.375 850.025 191.144 851.944 190.854Z" fill="#E8C0A8"/>
<path d="M840.602 188.656L840.401 180.035L851.686 179.63L851.944 190.854C850.025 191.144 845.356 191.375 840.602 188.656Z" fill="#CF9F82"/>
<path d="M847.304 201.413C840.602 201.413 838.998 196.727 838.769 195.28C843.523 194.065 848.221 193.602 854.063 194.586C854.206 196.264 853.863 201.413 847.304 201.413Z" fill="#E8C0A8"/>
<path d="M829.976 197.334C831.036 196.64 834.587 195.28 835.905 194.991C836.334 194.904 840.43 194.644 840.831 194.557C841.117 196.032 845.642 199.706 848.736 199.764C853.776 199.851 853.576 196.177 853.404 194.47C854.006 194.557 854.607 194.152 855.18 194.441C857.557 195.685 864.058 202.512 867.896 217.295C870.932 228.981 877.233 255.827 875.257 286.953C875.257 286.953 855.38 294.185 823.475 288.024C823.475 288.024 825.308 219.262 825.909 211.885C826.482 204.566 826.654 199.475 829.976 197.334Z" fill="#E9E9E9"/>
<path d="M846.932 204.074L850.025 206.013L857.5 268.121L862.111 276.279C862.111 276.279 866.235 268.931 865.978 266.935C865.72 264.939 854.665 209.31 852.746 205.608C853.49 204.277 854.178 202.773 854.178 202.773C854.178 202.773 850.884 198.115 849.824 198.202C848.793 198.26 846.932 204.074 846.932 204.074Z" fill="#00283E"/>
<path d="M818.205 292.565C818.205 292.565 820.41 293.636 821.27 295.111C822.158 296.615 822.902 298.438 823.332 300C824.22 303.182 824.306 306.219 824.506 306.827C824.678 307.405 823.876 308.302 823.017 308.013C822.129 307.724 821.613 304.513 821.442 303.789C821.184 302.574 821.212 301.359 820.754 301.793C820.296 302.227 820.382 304.31 820.181 305.641C820.124 305.959 820.067 306.566 820.01 306.798C819.78 308.157 819.494 308.013 818.549 307.897C817.89 307.81 817.432 307.666 817.546 306.74C817.575 306.451 817.69 306.161 817.632 305.93C817.546 306.219 817.489 306.595 817.289 307.029C816.888 307.926 814.854 308.013 814.797 306.624C814.74 305.959 814.768 305.38 814.74 305.496C814.711 305.814 814.625 306.161 814.511 306.856C814.367 307.752 812.248 308.157 812.191 306.682C812.162 305.727 812.277 304.86 812.248 304.628C812.076 305.207 812.105 305.959 812.019 306.422C811.876 307.203 811.876 307.637 811.331 307.666C810.787 307.724 810.157 307.752 810.157 307.319C809.728 304.657 810.1 300.607 810.186 299.392C810.3 298.206 811.389 295.169 811.675 294.388C811.704 294.012 811.704 293.838 811.704 293.433C811.675 292.536 812.133 292.218 813.021 292.016L815.914 291.321C816.974 291.061 817.976 291.611 818.205 292.565Z" fill="#E8C0A8"/>
<path d="M821.298 295.111C821.699 293.491 827.284 252.558 827.857 248.826C828.43 245.065 834.731 223.109 837.48 213.476C839.456 206.591 837.738 198.578 831.723 197.508C825.021 196.322 820.038 202.426 818.463 210.873C817.546 215.704 811.589 244.574 811.389 247.987C811.188 251.401 810.93 290.685 810.701 294.561C810.787 295.632 821.069 295.979 821.298 295.111Z" fill="white"/>
<path d="M840.602 193.545C837.881 194.008 834.702 195.28 834.702 195.28C834.702 195.28 839.943 203.004 845.843 207.488C848.135 203.872 850.053 198 850.053 198C850.053 198 844.096 196.958 840.602 193.545Z" fill="white"/>
<path d="M849.738 198.231L854.836 204.769C854.836 204.769 857.271 199.041 855.18 194.441C854.407 194.065 852.029 193.458 852.029 193.458C852.029 193.458 851.714 196.842 849.738 198.231Z" fill="white"/>
<path d="M837.566 186.168C837.566 186.168 867.037 190.854 870.99 182.378C871.591 181.106 870.789 172.63 869.93 166.584C868.641 157.674 865.548 146.594 860.765 140.346C852.86 130.048 832.955 119.46 823.503 127.994C814.052 136.556 795.579 162.36 837.566 186.168Z" fill="#E8C0A8"/>
<path d="M860.25 152.033C860.221 152.033 860.221 152.033 860.192 152.033L860.164 150.326C864.574 152.496 869.157 153.45 873.482 154.694C869.443 164.125 860.135 161.03 858.445 152.322C859.104 152.033 859.849 152.004 860.25 152.033C860.736 152.091 860.651 152.033 860.25 152.033Z" fill="#E8C0A8"/>
<path d="M848.106 129.324L849.681 129.926C849.309 129.984 848.736 129.726 848.106 129.324Z" fill="#D0904B"/>
<path d="M835.819 167.365C837.108 173.382 840.402 185.3 837.165 188.887C829.862 186.255 820.554 181.626 814.568 176.506C808.725 171.53 800.219 159.496 805.832 147.347C810.587 134.532 813.365 131.378 818.062 129.035C821.871 127.126 829.719 124.031 835.275 124.32C837.824 124.465 840.573 124.956 842.979 125.795C844.383 126.258 846.76 128.399 848.478 129.469L847.705 129.18C845.557 133.056 835.361 131.263 834.731 135.775C833.986 141.011 842.32 152.207 842.263 157.442C842.235 161.897 836.277 161.521 835.819 167.365Z" fill="#031544"/>
<path d="M833.242 165.485C835.934 168.724 841.547 170.952 843.638 169.158C845.729 167.365 845.242 163.286 842.55 160.075C839.858 156.864 835.189 153.335 832.526 155.88C830.549 157.761 830.549 162.245 833.242 165.485Z" fill="#E8C0A8"/>
<path d="M823.017 127.126C820.382 128.052 820.754 128.919 823.36 130.973C825.079 132.333 832.21 138.35 834.072 136.99L835.218 137.858C838.626 137.453 842.693 136.065 845.929 134.879C847.733 134.213 851.399 133.143 853.003 131.87C856.927 128.833 858.789 115.179 854.006 113.703C849.223 112.228 847.934 117.666 847.934 117.666C847.934 117.666 851.056 111.1 845.385 110.608C839.714 110.116 839.714 118.129 839.714 118.129C839.714 118.129 839.972 116.625 838.798 116.625C837.623 116.654 838.626 118.419 836.993 119.894C831.809 124.609 827.084 125.708 823.017 127.126Z" fill="#031544"/>
<path d="M859.333 143.527C860.278 145.089 863.6 150.817 859.132 153.304C854.664 155.792 852.774 147.895 852.774 147.895C852.774 147.895 857.299 144.684 859.333 143.527Z" fill="url(#paint0_linear_1622_104450)"/>
<path d="M858.073 143.615C852.975 145.727 850.483 149.863 855.037 147.607C859.591 145.351 860.736 142.516 858.073 143.615Z" fill="url(#paint1_linear_1622_104450)"/>
<path d="M857.414 153.422C857.586 150.153 860.966 149.863 861.853 152.207" stroke="#4B2B19" stroke-width="0.3086" stroke-miterlimit="10"/>
<path d="M855.438 169.448C855.209 170.518 855.81 171.53 856.44 172.254C857.099 173.006 858.016 173.526 858.989 173.758C860.966 174.25 863.085 173.931 865.176 173.555L863.686 174.134C863.171 174.25 862.655 174.394 862.111 174.481C861.051 174.655 859.934 174.626 858.846 174.394C857.786 174.105 856.727 173.498 856.068 172.572C855.409 171.675 854.98 170.46 855.438 169.448Z" fill="#A56052"/>
<path d="M796.467 754.516L899.745 650.202" stroke="#606060" stroke-width="0.5" stroke-miterlimit="10" stroke-linecap="round"/>
<path d="M990.22 528.126L1063.8 453.81" stroke="#606060" stroke-width="0.3562" stroke-miterlimit="10" stroke-linecap="round"/>
<path d="M532.515 549.967L606.092 475.622" stroke="#606060" stroke-width="0.3562" stroke-miterlimit="10" stroke-linecap="round"/>
<path d="M598.13 497.231L633.645 461.36" stroke="#606060" stroke-width="0.3562" stroke-miterlimit="10" stroke-linecap="round"/>
<path d="M1054.95 481.176L1090.46 445.305" stroke="#606060" stroke-width="0.3562" stroke-miterlimit="10" stroke-linecap="round"/>
<path d="M901.692 255.277L975.27 180.961" stroke="#606060" stroke-width="0.3562" stroke-miterlimit="10" stroke-linecap="round"/>
<path d="M966.42 208.327L1001.93 172.456" stroke="#606060" stroke-width="0.3562" stroke-miterlimit="10" stroke-linecap="round"/>
<path d="M716.359 291.292L751.873 255.422" stroke="#606060" stroke-width="0.3562" stroke-miterlimit="10" stroke-linecap="round"/>
<path d="M958.114 394.594L993.629 358.723" stroke="#606060" stroke-width="0.3562" stroke-miterlimit="10" stroke-linecap="round"/>
<path d="M852.774 717.779L888.288 681.908" stroke="#606060" stroke-width="0.3562" stroke-miterlimit="10" stroke-linecap="round"/>
<path d="M710.229 404.806L745.744 368.935" stroke="#606060" stroke-width="0.3562" stroke-miterlimit="10" stroke-linecap="round"/>
<path d="M715.5 392.251L751.014 356.38" stroke="#606060" stroke-width="0.3562" stroke-miterlimit="10" stroke-linecap="round"/>
<path d="M1004.94 281.254C1004.94 283.366 1003.25 285.073 1001.16 285.073C999.07 285.073 997.38 283.366 997.38 281.254C997.38 279.143 999.07 277.436 1001.16 277.436C1003.25 277.436 1004.94 279.143 1004.94 281.254Z" stroke="#031544" stroke-width="0.3562" stroke-miterlimit="10" stroke-linecap="round"/>
<path d="M686.515 185.821C686.515 187.412 685.255 188.685 683.68 188.685C682.104 188.685 680.844 187.412 680.844 185.821C680.844 184.23 682.104 182.957 683.68 182.957C685.226 182.957 686.515 184.23 686.515 185.821Z" stroke="#031544" stroke-width="0.3562" stroke-miterlimit="10" stroke-linecap="round"/>
<path d="M633.587 301.301C633.587 303.413 631.898 305.12 629.807 305.12C627.716 305.12 626.026 303.413 626.026 301.301C626.026 299.19 627.716 297.483 629.807 297.483C631.898 297.483 633.587 299.19 633.587 301.301Z" stroke="#031544" stroke-width="0.3562" stroke-miterlimit="10" stroke-linecap="round"/>
<path d="M511.693 425.374C511.693 428.006 509.574 430.147 506.967 430.147C504.361 430.147 502.242 428.006 502.242 425.374C502.242 422.741 504.361 420.601 506.967 420.601C509.574 420.601 511.693 422.741 511.693 425.374Z" stroke="#031544" stroke-width="0.3562" stroke-miterlimit="10" stroke-linecap="round"/>
<path d="M1109.82 368.096C1109.82 369.687 1108.56 370.96 1106.99 370.96C1105.41 370.96 1104.15 369.687 1104.15 368.096C1104.15 366.505 1105.41 365.232 1106.99 365.232C1108.53 365.261 1109.82 366.534 1109.82 368.096Z" stroke="#031544" stroke-width="0.3562" stroke-miterlimit="10" stroke-linecap="round"/>
<path d="M1106.99 688.792C1106.99 690.904 1105.3 692.611 1103.21 692.611C1101.12 692.611 1099.43 690.904 1099.43 688.792C1099.43 686.681 1101.12 684.974 1103.21 684.974C1105.3 684.974 1106.99 686.681 1106.99 688.792Z" stroke="#031544" stroke-width="0.3562" stroke-miterlimit="10" stroke-linecap="round"/>
<path d="M480.503 745.086C480.503 746.677 479.243 747.95 477.668 747.95C476.093 747.95 474.833 746.677 474.833 745.086C474.833 743.495 476.093 742.222 477.668 742.222C479.243 742.222 480.503 743.495 480.503 745.086Z" stroke="#031544" stroke-width="0.3562" stroke-miterlimit="10" stroke-linecap="round"/>
<path d="M8.07674 746.041C12.2526 746.041 15.6379 742.621 15.6379 738.404C15.6379 734.186 12.2526 730.767 8.07674 730.767C3.90085 730.767 0.515625 734.186 0.515625 738.404C0.515625 742.621 3.90085 746.041 8.07674 746.041Z" stroke="#031544" stroke-width="0.3562" stroke-miterlimit="10" stroke-linecap="round"/>
<path d="M410.592 532.263C410.592 533.854 409.332 535.127 407.756 535.127C406.181 535.127 404.921 533.854 404.921 532.263C404.921 530.672 406.181 529.399 407.756 529.399C409.332 529.399 410.592 530.672 410.592 532.263Z" stroke="#031544" stroke-width="0.3562" stroke-miterlimit="10" stroke-linecap="round"/>
<path d="M332.174 182.957C332.174 185.069 330.484 186.776 328.393 186.776C326.303 186.776 324.613 185.069 324.613 182.957C324.613 180.845 326.303 179.139 328.393 179.139C330.484 179.139 332.174 180.845 332.174 182.957Z" stroke="#031544" stroke-width="0.3562" stroke-miterlimit="10" stroke-linecap="round"/>
<path d="M44.9087 185.821C44.9087 191.086 40.6698 195.367 35.4573 195.367C30.2447 195.367 26.0059 191.086 26.0059 185.821C26.0059 180.556 30.2447 176.275 35.4573 176.275C40.6985 176.275 44.9087 180.556 44.9087 185.821Z" stroke="#031544" stroke-width="0.3562" stroke-miterlimit="10" stroke-linecap="round"/>
<path d="M702.554 3.54545C702.554 5.13649 701.294 6.40933 699.719 6.40933C698.143 6.40933 696.883 5.13649 696.883 3.54545C696.883 1.95441 698.143 0.68158 699.719 0.68158C701.294 0.68158 702.554 1.95441 702.554 3.54545Z" stroke="#031544" stroke-width="0.3562" stroke-miterlimit="10" stroke-linecap="round"/>
<path d="M597.672 140.028C597.672 141.619 596.412 142.892 594.837 142.892C593.262 142.892 592.001 141.619 592.001 140.028C592.001 138.437 593.262 137.164 594.837 137.164C596.412 137.164 597.672 138.437 597.672 140.028Z" stroke="#031544" stroke-width="0.3562" stroke-miterlimit="10" stroke-linecap="round"/>
<path d="M1091.87 127.618C1091.87 130.25 1089.75 132.391 1087.14 132.391C1084.53 132.391 1082.41 130.25 1082.41 127.618C1082.41 124.985 1084.53 122.845 1087.14 122.845C1089.75 122.845 1091.87 124.985 1091.87 127.618Z" stroke="#031544" stroke-width="0.3562" stroke-miterlimit="10" stroke-linecap="round"/>
<path d="M920.824 17.8648C920.824 19.4559 919.564 20.7287 917.989 20.7287C916.413 20.7287 915.153 19.4559 915.153 17.8648C915.153 16.2738 916.413 15.0009 917.989 15.0009C919.564 15.0009 920.824 16.2738 920.824 17.8648Z" stroke="#031544" stroke-width="0.3562" stroke-miterlimit="10" stroke-linecap="round"/>
<path d="M375.26 471.2V485H373.86V473.98L368.94 485H367.92L363 474.02V485H361.6V471.2H363.08L368.42 483.16L373.76 471.2H375.26ZM386.536 481.68H380.176L378.956 485H377.476L382.576 471.2H384.156L389.236 485H387.756L386.536 481.68ZM386.116 480.52L383.356 472.96L380.596 480.52H386.116ZM396.523 478.02L400.763 485H399.203L395.643 479.16L392.263 485H390.703L394.923 477.96L390.703 471.02H392.263L395.803 476.84L399.223 471.02H400.783L396.523 478.02Z" fill="#E7FCFF"/>
<path d="M460.74 112.02C462.286 112.02 463.613 112.3 464.72 112.86C465.826 113.42 466.673 114.227 467.26 115.28C467.846 116.333 468.14 117.587 468.14 119.04C468.14 120.48 467.846 121.727 467.26 122.78C466.673 123.82 465.826 124.62 464.72 125.18C463.613 125.727 462.286 126 460.74 126H456.6V112.02H460.74ZM460.74 124.84C462.686 124.84 464.166 124.333 465.18 123.32C466.206 122.293 466.72 120.867 466.72 119.04C466.72 117.2 466.206 115.767 465.18 114.74C464.166 113.7 462.686 113.18 460.74 113.18H458V124.84H460.74ZM472.121 112.02V126H470.721V112.02H472.121ZM479.531 126.14C478.611 126.14 477.798 125.98 477.091 125.66C476.398 125.34 475.851 124.893 475.451 124.32C475.051 123.747 474.838 123.107 474.811 122.4H476.291C476.358 123.08 476.658 123.68 477.191 124.2C477.724 124.707 478.504 124.96 479.531 124.96C480.478 124.96 481.224 124.72 481.771 124.24C482.331 123.747 482.611 123.127 482.611 122.38C482.611 121.78 482.458 121.3 482.151 120.94C481.844 120.567 481.464 120.293 481.011 120.12C480.558 119.933 479.931 119.733 479.131 119.52C478.198 119.267 477.458 119.02 476.911 118.78C476.364 118.54 475.898 118.167 475.511 117.66C475.124 117.153 474.931 116.467 474.931 115.6C474.931 114.88 475.118 114.24 475.491 113.68C475.864 113.107 476.391 112.66 477.071 112.34C477.751 112.02 478.531 111.86 479.411 111.86C480.704 111.86 481.744 112.18 482.531 112.82C483.331 113.447 483.791 114.26 483.911 115.26H482.391C482.298 114.687 481.984 114.18 481.451 113.74C480.918 113.287 480.198 113.06 479.291 113.06C478.451 113.06 477.751 113.287 477.191 113.74C476.631 114.18 476.351 114.787 476.351 115.56C476.351 116.147 476.504 116.62 476.811 116.98C477.118 117.34 477.498 117.613 477.951 117.8C478.418 117.987 479.044 118.187 479.831 118.4C480.738 118.653 481.471 118.907 482.031 119.16C482.591 119.4 483.064 119.773 483.451 120.28C483.838 120.787 484.031 121.467 484.031 122.32C484.031 122.973 483.858 123.593 483.511 124.18C483.164 124.767 482.651 125.24 481.971 125.6C481.291 125.96 480.478 126.14 479.531 126.14ZM494.916 112.02V113.18H491.036V126H489.636V113.18H485.736V112.02H494.916ZM498.527 112.02V126H497.127V112.02H498.527ZM512.237 126H510.837L503.097 114.24V126H501.697V112.02H503.097L510.837 123.76V112.02H512.237V126ZM514.768 119C514.768 117.627 515.068 116.4 515.668 115.32C516.268 114.227 517.088 113.38 518.128 112.78C519.168 112.167 520.328 111.86 521.608 111.86C523.168 111.86 524.501 112.233 525.608 112.98C526.728 113.713 527.541 114.753 528.048 116.1H526.408C526.008 115.153 525.395 114.413 524.568 113.88C523.755 113.347 522.768 113.08 521.608 113.08C520.581 113.08 519.655 113.32 518.828 113.8C518.015 114.28 517.375 114.973 516.908 115.88C516.441 116.773 516.208 117.813 516.208 119C516.208 120.187 516.441 121.227 516.908 122.12C517.375 123.013 518.015 123.7 518.828 124.18C519.655 124.66 520.581 124.9 521.608 124.9C522.768 124.9 523.755 124.64 524.568 124.12C525.395 123.587 526.008 122.853 526.408 121.92H528.048C527.541 123.253 526.728 124.287 525.608 125.02C524.488 125.753 523.155 126.12 521.608 126.12C520.328 126.12 519.168 125.82 518.128 125.22C517.088 124.607 516.268 123.76 515.668 122.68C515.068 121.6 514.768 120.373 514.768 119ZM539.018 112.02V113.18H535.138V126H533.738V113.18H529.838V112.02H539.018Z" fill="#E7FCFF"/>
<path d="M0.351646 418.98L15.3606 462.53L11.5898 464.948L-3.45291 421.421L0.351646 418.98Z" fill="#E7FCFF"/>
<path d="M0.7 289.68H-5.66L-6.88 293H-8.36L-3.26 279.2H-1.68L3.4 293H1.92L0.7 289.68ZM0.28 288.52L-2.48 280.96L-5.24 288.52H0.28ZM16.7269 279.02L11.4269 293H9.82688L4.52688 279.02H6.04688L10.6269 291.48L15.2469 279.02H16.7269ZM29.8305 283.1C29.4305 282.18 28.8171 281.46 27.9905 280.94C27.1771 280.407 26.2171 280.14 25.1105 280.14C24.0705 280.14 23.1371 280.38 22.3105 280.86C21.4838 281.34 20.8305 282.027 20.3505 282.92C19.8705 283.8 19.6305 284.827 19.6305 286C19.6305 287.173 19.8705 288.207 20.3505 289.1C20.8305 289.993 21.4838 290.68 22.3105 291.16C23.1371 291.64 24.0705 291.88 25.1105 291.88C26.0838 291.88 26.9571 291.673 27.7305 291.26C28.5171 290.833 29.1438 290.233 29.6105 289.46C30.0905 288.673 30.3638 287.76 30.4305 286.72H24.5505V285.58H31.9105V286.6C31.8438 287.827 31.5105 288.94 30.9105 289.94C30.3105 290.927 29.5038 291.707 28.4905 292.28C27.4905 292.853 26.3638 293.14 25.1105 293.14C23.8171 293.14 22.6438 292.84 21.5905 292.24C20.5371 291.627 19.7038 290.78 19.0905 289.7C18.4905 288.607 18.1905 287.373 18.1905 286C18.1905 284.627 18.4905 283.4 19.0905 282.32C19.7038 281.227 20.5371 280.38 21.5905 279.78C22.6438 279.167 23.8171 278.86 25.1105 278.86C26.6038 278.86 27.9105 279.233 29.0305 279.98C30.1505 280.727 30.9638 281.767 31.4705 283.1H29.8305Z" fill="#E7FCFF"/>
</g>
<defs>
<linearGradient id="paint0_linear_1622_104450" x1="855.999" y1="146.01" x2="859.669" y2="152.689" gradientUnits="userSpaceOnUse">
<stop stop-color="#C9926A"/>
<stop offset="1" stop-color="#C9926A" stop-opacity="0"/>
</linearGradient>
<linearGradient id="paint1_linear_1622_104450" x1="852.371" y1="146.615" x2="859.78" y2="145.039" gradientUnits="userSpaceOnUse">
<stop stop-color="#502F26"/>
<stop offset="1" stop-color="#3B221D"/>
</linearGradient>
<clipPath id="clip0_1622_104450">
<rect width="1112" height="755.079" fill="white" transform="translate(0 0.160889)"/>
</clipPath>
</defs>
</svg>
