<svg width="80" height="81" viewBox="0 0 80 81" fill="none" xmlns="http://www.w3.org/2000/svg">
<rect y="0.5" width="80" height="80" rx="8" fill="url(#paint0_linear_2427_122523)"/>
<g clip-path="url(#clip0_2427_122523)">
<path d="M21.0304 50.5625L22.302 48.1875L34.1813 26.1563C34.1813 26.1563 40.3463 20.0938 45.6099 25.5938L58.6803 48.5782C58.6803 48.5782 62.125 60.3125 51.0344 58.3907C51.0344 58.3907 39.8634 46.8282 30.3181 58.3907C30.3181 58.3907 19.0666 61.1719 21.0304 50.5625Z" stroke="url(#paint1_linear_2427_122523)" stroke-width="3" stroke-miterlimit="10"/>
<path d="M22.3177 48.1875C22.3177 48.1875 22.028 56.625 30.0763 52.5469C31.7986 51.3438 36.9978 48.0781 43.6457 48.9063C45.5612 49.1406 47.1869 49.6719 48.4908 50.2344C45.6899 44.9219 42.873 39.5938 40.0722 34.2812L35.4203 44.4219C38.5592 44.1719 41.7141 43.9219 44.8529 43.6719" stroke="url(#paint2_linear_2427_122523)" stroke-width="3" stroke-miterlimit="10"/>
<path d="M35.4207 44.4218C34.3584 44.7031 33.2155 45.0468 32.0244 45.4687C30.4469 46.0312 29.0143 46.6249 27.7427 47.2343C28.0002 46.7656 28.2739 46.2968 28.5314 45.8281C32.0727 39.4843 35.5978 33.1406 39.123 26.7812C39.123 26.7812 41.3443 22.5468 45.6099 25.5781" stroke="url(#paint3_linear_2427_122523)" stroke-width="3" stroke-miterlimit="10"/>
<path d="M40.0723 34.3438L42.5833 29.1094L53.2071 49.8906C53.2071 49.8906 55.4445 58.8281 49.1346 56.8906" stroke="url(#paint4_linear_2427_122523)" stroke-width="3" stroke-miterlimit="10"/>
</g>
<defs>
<linearGradient id="paint0_linear_2427_122523" x1="5" y1="80.5" x2="80" y2="7" gradientUnits="userSpaceOnUse">
<stop stop-color="#2B32B2"/>
<stop offset="1" stop-color="#1488CC"/>
</linearGradient>
<linearGradient id="paint1_linear_2427_122523" x1="39.9932" y1="23.2871" x2="39.9932" y2="58.7197" gradientUnits="userSpaceOnUse">
<stop stop-color="white"/>
<stop offset="1" stop-color="#CCCCCC"/>
</linearGradient>
<linearGradient id="paint2_linear_2427_122523" x1="35.4036" y1="34.2812" x2="35.4036" y2="53.6602" gradientUnits="userSpaceOnUse">
<stop stop-color="white"/>
<stop offset="1" stop-color="#CCCCCC"/>
</linearGradient>
<linearGradient id="paint3_linear_2427_122523" x1="36.6763" y1="24.4849" x2="36.6763" y2="47.2343" gradientUnits="userSpaceOnUse">
<stop stop-color="white"/>
<stop offset="1" stop-color="#CCCCCC"/>
</linearGradient>
<linearGradient id="paint4_linear_2427_122523" x1="46.8323" y1="29.1094" x2="46.8323" y2="57.1656" gradientUnits="userSpaceOnUse">
<stop stop-color="white"/>
<stop offset="1" stop-color="#CCCCCC"/>
</linearGradient>
<clipPath id="clip0_2427_122523">
<rect width="40" height="37" fill="white" transform="translate(20 22.5)"/>
</clipPath>
</defs>
</svg>
