<svg width="80" height="81" viewBox="0 0 80 81" fill="none" xmlns="http://www.w3.org/2000/svg">
<rect y="0.5" width="80" height="80" rx="8" fill="url(#paint0_linear_2427_48315)"/>
<path fill-rule="evenodd" clip-rule="evenodd" d="M40.3431 24.5C36.8842 24.5 34.0803 27.2439 34.0803 30.6286V34.8715H44.9198V36.05H29.2628C25.8039 36.05 23 38.7939 23 42.1786V51.3715C23 54.7562 25.8039 57.5 29.2628 57.5H32.8759V52.3144C32.8759 48.9297 35.6799 46.1857 39.1388 46.1857H50.7008C53.6275 46.1857 56 43.864 56 41.0001V30.6286C56 27.2439 53.1962 24.5 49.7373 24.5H40.3431ZM38.8979 32.0429C40.0952 32.0429 41.0657 31.0931 41.0657 29.9214C41.0657 28.7498 40.0952 27.8 38.8979 27.8C37.7005 27.8 36.7299 28.7498 36.7299 29.9214C36.7299 31.0931 37.7005 32.0429 38.8979 32.0429Z" fill="url(#paint1_linear_2427_48315)"/>
<defs>
<linearGradient id="paint0_linear_2427_48315" x1="5" y1="80.5" x2="80" y2="7" gradientUnits="userSpaceOnUse">
<stop stop-color="#2B32B2"/>
<stop offset="1" stop-color="#1488CC"/>
</linearGradient>
<linearGradient id="paint1_linear_2427_48315" x1="39.5001" y1="24.5" x2="39.5001" y2="57.5" gradientUnits="userSpaceOnUse">
<stop stop-color="white"/>
<stop offset="1" stop-color="#CCCCCC"/>
</linearGradient>
</defs>
</svg>
