<svg width="80" height="81" viewBox="0 0 80 81" fill="none" xmlns="http://www.w3.org/2000/svg">
<rect y="0.5" width="80" height="80" rx="8" fill="url(#paint0_linear_2427_122534)"/>
<path d="M30.2947 40.0215C33.4106 41.2334 36.6978 41.8168 40 41.7439C43.3022 41.8163 46.5894 41.2324 49.7053 40.0201C52.1375 38.9705 53 37.8039 53 37.1326V32C52.1497 32.6301 51.2374 33.1513 50.2807 33.5535C46.984 34.8597 43.5012 35.4965 40 35.4333C36.4991 35.4953 33.0166 34.8595 29.7193 33.5564C28.7621 33.1541 27.8498 32.6319 27 32V37.1253C27 37.8097 27.8651 38.9705 30.2947 40.0215Z" fill="url(#paint1_linear_2427_122534)"/>
<path d="M30.2947 49.1186C31.3955 49.5581 32.5306 49.8967 33.6872 50.1308C35.7672 50.5521 37.8815 50.7593 40 50.7496C42.1184 50.7598 44.2328 50.553 46.3128 50.1322C47.4694 49.8981 48.6045 49.5594 49.7053 49.1199C52.1375 48.1268 53 47.023 53 46.3878V41.7568C52.2971 42.1996 51.5583 42.5768 50.7922 42.8838C47.3289 44.1676 43.6734 44.789 40 44.7185C36.3262 44.7868 32.6707 44.1631 29.2078 42.877C28.442 42.5691 27.7033 42.192 27 41.75V46.3851C27 47.0216 27.8651 48.1213 30.2947 49.1186Z" fill="url(#paint2_linear_2427_122534)"/>
<path d="M40 60.5C47.1766 60.5 53 57.9738 53 54.8595V50.75C52.3606 51.1779 51.6907 51.547 50.9971 51.8538L50.7922 51.945C47.3296 53.3103 43.674 53.9732 40 53.902C36.3259 53.9753 32.6699 53.3123 29.2078 51.945C29.1373 51.9161 29.0695 51.8827 29.0029 51.8538C28.3093 51.547 27.6394 51.1779 27 50.75V54.8595C27 57.9738 32.8234 60.5 40 60.5Z" fill="url(#paint3_linear_2427_122534)"/>
<path d="M40 32C47.1797 32 53 29.6495 53 26.75C53 23.8505 47.1797 21.5 40 21.5C32.8203 21.5 27 23.8505 27 26.75C27 29.6495 32.8203 32 40 32Z" fill="white"/>
<defs>
<linearGradient id="paint0_linear_2427_122534" x1="5" y1="80.5" x2="80" y2="7" gradientUnits="userSpaceOnUse">
<stop stop-color="#2B32B2"/>
<stop offset="1" stop-color="#1488CC"/>
</linearGradient>
<linearGradient id="paint1_linear_2427_122534" x1="40" y1="32" x2="40" y2="41.75" gradientUnits="userSpaceOnUse">
<stop stop-color="white" stop-opacity="0.95"/>
<stop offset="1" stop-color="white" stop-opacity="0.85"/>
</linearGradient>
<linearGradient id="paint2_linear_2427_122534" x1="40" y1="41.75" x2="40" y2="50.75" gradientUnits="userSpaceOnUse">
<stop stop-color="white" stop-opacity="0.85"/>
<stop offset="1" stop-color="white" stop-opacity="0.75"/>
</linearGradient>
<linearGradient id="paint3_linear_2427_122534" x1="40" y1="50.75" x2="40" y2="60.5" gradientUnits="userSpaceOnUse">
<stop stop-color="white" stop-opacity="0.75"/>
<stop offset="1" stop-color="#CCCCCC"/>
</linearGradient>
</defs>
</svg>
