<svg width="1894" height="147" viewBox="0 0 1894 147" fill="none" xmlns="http://www.w3.org/2000/svg">
<path d="M1129.08 75.9083C1134.95 70.025 1126.33 65.9021 1126.33 65.9021L1127.65 56.8686C1133.81 55.8495 1138.13 60.0651 1138.13 60.0651C1149.43 72.1791 1135.73 83.8531 1133.47 85.4514C1131.2 87.0496 1130.4 90.5935 1130.4 90.5935C1128.46 101.109 1139.06 98.7236 1139.06 98.7236C1130.83 105.58 1124.69 98.7236 1124.69 98.7236C1115.57 86.818 1129.08 75.9083 1129.08 75.9083ZM1129.08 75.9083L1123.95 57.2161C1123.95 57.2161 1118.98 31.4823 1099.3 37.8289C1079.62 44.1755 1089.37 65.7863 1089.37 65.7863C1089.37 65.7863 1098.54 89.1111 1079.04 97.4728C1079.04 97.4728 1065.46 99.6501 1067.52 90.6166C1067.52 90.6166 1078 81.3516 1079.6 75.2829C1081.19 69.2143 1077.43 62.1265 1075.37 66.5969C1073.32 71.0673 1072.09 76.2095 1067.29 77.1128C1062.48 78.0161 1047.77 89.806 1059.41 102.962C1071.05 116.119 1090.43 110.398 1090.43 110.398" stroke="white" stroke-width="0.75" stroke-miterlimit="10"/>
<path d="M1096.85 91.7516C1096.85 91.7516 1076.2 112.343 1105.86 120.126C1105.86 120.126 1120.23 125.5 1105.86 132.935C1091.5 140.37 1111.22 135.46 1111.22 135.46C1111.22 135.46 1125.01 129.97 1117.71 117.972C1110.41 105.974 1103.69 113.177 1109.05 97.0327" stroke="white" stroke-width="0.75" stroke-miterlimit="10"/>
<path d="M1119.15 128.163C1119.15 128.163 1134.16 129.738 1139.06 121.956C1143.95 114.173 1147.65 110.027 1142.55 111.648C1137.44 113.27 1133.79 125.615 1124.67 115.91C1115.54 106.205 1125.15 99.2332 1125.15 99.2332" stroke="white" stroke-width="0.75" stroke-miterlimit="10"/>
<path d="M1122.31 102.36C1122.31 102.36 1142.24 110.791 1150.33 102.36C1158.41 93.9288 1159.69 89.8059 1155.69 79.8459C1152.62 72.1791 1154.35 69.469 1155.3 68.6352C1155.87 68.1256 1156.34 67.5234 1156.64 66.8053C1157.19 65.5082 1156.96 64.3964 1151.46 68.2877C1142.91 74.3564 1150.33 83.1582 1150.33 83.1582C1150.33 83.1582 1151.92 96.7778 1138.92 89.5742C1138.92 89.5742 1135.94 88.254 1134.23 84.8491" stroke="white" stroke-width="0.75" stroke-miterlimit="10"/>
<path d="M1071.72 110.49C1071.72 110.49 1061.16 117.369 1065.05 123.994C1068.93 130.618 1078.95 127.306 1078.95 127.306C1078.95 127.306 1086.6 127.885 1080.55 132.101C1074.49 136.317 1070.5 137.127 1077.59 137.011C1084.68 136.896 1093.78 130.132 1086.6 123.739C1086.6 123.739 1084.54 121.122 1081.35 120.89C1078.17 120.659 1078.84 117.23 1081.82 117.23C1084.8 117.23 1087.98 122.025 1096.42 119.639C1096.42 119.639 1099.3 118.829 1100.32 118.273" stroke="white" stroke-width="0.75" stroke-miterlimit="10"/>
<path d="M1078.44 66.2494C1078.44 66.2494 1079.28 63.1688 1077.8 60.1808C1076.32 57.1928 1077.57 55.8262 1079.62 57.8877C1081.68 59.9491 1084.98 65.6703 1082.93 70.0018C1080.87 74.3332 1086.14 84.0152 1091.31 74.1942" stroke="white" stroke-width="0.75" stroke-miterlimit="10"/>
<path d="M1075.28 82.5792C1075.28 82.5792 1075.33 94.369 1087.02 91.7516" stroke="white" stroke-width="0.75" stroke-miterlimit="10"/>
<path d="M1090.57 60.0649L1116.93 52.0506C1116.93 52.0506 1119.22 53.6488 1116.93 55.3628C1116.93 55.3628 1120 59.4858 1116.24 64.3963C1116.24 64.3963 1110.3 68.4034 1106.19 60.8524C1106.19 60.8524 1104.41 59.4858 1104.34 63.8172C1104.27 67.639 1101.36 69.7932 1096.25 68.4497C1094.82 68.0791 1093.62 67.1063 1092.95 65.786C1092.28 64.4658 1091.4 62.4969 1090.57 60.0649Z" stroke="white" stroke-width="0.75" stroke-miterlimit="10"/>
<path d="M1098.69 59.4401L1096.62 60.0988C1095.09 60.5865 1094.24 62.2272 1094.73 63.7635C1095.21 65.2998 1096.85 66.1499 1098.38 65.6623L1100.45 65.0036C1101.98 64.5159 1102.83 62.8752 1102.34 61.3389C1101.86 59.8026 1100.22 58.9525 1098.69 59.4401Z" stroke="white" stroke-width="0.75" stroke-miterlimit="10"/>
<path d="M1111.78 55.4742L1109.71 56.1329C1108.18 56.6206 1107.33 58.2613 1107.82 59.7976C1108.3 61.3339 1109.94 62.184 1111.47 61.6964L1113.54 61.0377C1115.07 60.55 1115.92 58.9093 1115.43 57.373C1114.95 55.8367 1113.31 54.9866 1111.78 55.4742Z" stroke="white" stroke-width="0.75" stroke-miterlimit="10"/>
<path d="M1120.92 48.53C1120.92 48.53 1127.21 43.1562 1132.57 41.9981C1137.93 40.8399 1141.23 35.8136 1141.23 35.8136C1141.23 35.8136 1143.86 32.3856 1143.75 37.5277C1143.63 42.6698 1133.26 48.5068 1133.26 48.5068C1133.26 48.5068 1128.36 52.1897 1127.67 56.8454L1126.35 65.8788" stroke="white" stroke-width="0.75" stroke-miterlimit="10"/>
<path d="M1109 69.8706L1109.03 69.8912L1109.04 69.8768L1109.05 69.8616C1109.09 69.8004 1109.12 69.7415 1109.14 69.7087C1109.14 69.7069 1109.14 69.7053 1109.14 69.7037C1109.16 69.6657 1109.16 69.6582 1109.17 69.6531L1109.17 69.647L1109.18 69.6408C1109.23 69.5605 1109.26 69.4948 1109.3 69.4381C1109.36 69.3269 1109.41 69.2508 1109.48 69.1684C1109.82 68.7623 1110.49 68.7161 1111 69.086L1111 69.086L1111 69.0899C1111.51 69.449 1111.89 70.0544 1112.05 70.7214C1112.21 71.3618 1112.08 72.0642 1111.74 72.533C1111.36 73.0513 1110.82 73.4218 1110.18 73.8479L1110.18 73.8479L1110.18 73.8524C1109.58 74.2655 1108.94 74.4936 1108.21 74.5776L1108.21 74.5775L1108.2 74.5787C1107.85 74.625 1107.5 74.6658 1107.17 74.6556C1106.83 74.6455 1106.55 74.5853 1106.32 74.4571C1106.09 74.3187 1105.85 74.0735 1105.65 73.7761C1105.5 73.529 1105.4 73.2784 1105.36 73.063C1105.47 73.2521 1105.62 73.3993 1105.79 73.5058C1105.8 73.5301 1105.81 73.5549 1105.82 73.5802C1105.88 73.6992 1105.97 73.762 1106.02 73.7901C1106.07 73.8196 1106.11 73.8336 1106.14 73.8402C1106.19 73.8533 1106.23 73.8559 1106.24 73.8568C1106.27 73.8587 1106.3 73.8571 1106.3 73.8566L1106.3 73.8566C1106.32 73.8553 1106.34 73.8532 1106.35 73.8522C1106.37 73.8489 1106.41 73.8428 1106.46 73.8343C1106.53 73.8277 1106.59 73.8105 1106.63 73.7948C1106.65 73.805 1106.67 73.8125 1106.68 73.817C1106.71 73.8306 1106.75 73.8441 1106.79 73.8576L1106.8 73.8412M1109 69.8706C1109.01 69.8611 1109.01 69.8495 1109.01 69.8359C1109.02 69.8167 1109.02 69.7937 1109.02 69.768C1109.03 69.7351 1109.02 69.6549 1109.01 69.6082C1109.01 69.5866 1108.99 69.5573 1108.98 69.5255C1108.97 69.5209 1108.97 69.5162 1108.97 69.5115C1108.93 69.4509 1108.89 69.3842 1108.85 69.3451C1108.84 69.3333 1108.81 69.3212 1108.79 69.3095C1108.78 69.3317 1108.76 69.354 1108.75 69.3763C1108.73 69.411 1108.71 69.4458 1108.69 69.4805C1108.68 69.5153 1108.66 69.55 1108.64 69.5848M1109 69.8706C1109 69.8706 1109 69.8706 1109 69.8706M1109 69.8706L1108.64 69.5848M1108.64 69.5848C1108.64 69.5848 1108.59 69.6419 1108.56 69.683L1108.94 69.9997C1108.95 69.9965 1108.95 69.991 1108.95 69.9841C1108.96 69.9798 1108.96 69.9717 1108.97 69.9611L1108.97 69.9608C1108.97 69.9542 1108.98 69.9278 1109 69.8919C1109 69.8874 1109 69.8802 1109 69.8706M1108.64 69.5848L1109 69.8706M1109 69.8706L1109.03 69.8912L1109.03 69.8912L1109.03 69.8913L1109.03 69.8914L1109.03 69.8919L1109.03 69.8936L1109.02 69.9002L1109.01 69.9229L1108.96 69.9858C1108.94 70.0035 1108.92 70.0277 1108.91 70.0411C1108.91 70.0433 1108.91 70.0483 1108.9 70.0543C1108.9 70.0569 1108.89 70.0633 1108.89 70.0711C1108.88 70.0749 1108.88 70.082 1108.87 70.0905L1108.87 70.0908C1108.86 70.0929 1108.86 70.0975 1108.85 70.1036C1108.62 70.3494 1108.38 70.5729 1108.15 70.781L1108.14 70.7881C1107.99 70.9226 1107.88 71.0573 1107.75 71.215C1107.74 71.2167 1107.74 71.2185 1107.74 71.2202C1107.95 71.3971 1108.1 71.6319 1108.17 71.8762C1108.22 71.8204 1108.27 71.7628 1108.33 71.7041C1108.54 71.4661 1108.76 71.2095 1109.01 70.98L1109.02 70.9705L1109.02 70.9706C1109.36 70.6721 1109.64 70.3541 1109.83 70.0011M1109.83 70.0011C1109.83 70.0156 1109.83 70.0305 1109.83 70.0458C1109.83 70.0775 1109.84 70.1079 1109.85 70.1369M1109.83 70.0011C1109.84 69.9845 1109.85 69.9679 1109.86 69.9512C1109.85 69.9653 1109.85 69.9791 1109.85 69.9928C1109.85 70.0014 1109.85 70.0099 1109.85 70.0181C1109.84 70.0636 1109.84 70.104 1109.85 70.1369M1109.83 70.0011C1109.83 69.9085 1109.86 69.8338 1109.88 69.7843C1109.93 69.6819 1110.01 69.6263 1110.03 69.6105C1110.03 69.6072 1110.04 69.6041 1110.04 69.6012M1109.85 70.1369C1109.85 70.163 1109.86 70.1843 1109.86 70.1998C1109.88 70.2675 1109.91 70.3147 1109.91 70.3284C1109.92 70.3412 1109.93 70.3525 1109.94 70.3617L1109.95 70.3503M1109.85 70.1369C1109.85 70.1591 1109.86 70.1806 1109.87 70.2011C1109.88 70.2226 1109.88 70.242 1109.89 70.259C1109.91 70.2959 1109.93 70.3263 1109.95 70.3503M1109.95 70.3503C1109.95 70.3508 1109.95 70.3514 1109.95 70.3519C1109.96 70.3672 1109.97 70.3798 1109.98 70.3898L1109.99 70.3753C1109.98 70.3657 1109.97 70.3553 1109.96 70.3441C1109.96 70.3429 1109.96 70.3417 1109.96 70.3405C1109.96 70.3398 1109.96 70.3391 1109.96 70.3383L1109.95 70.3503ZM1110.04 69.6012L1110.06 69.6419C1110.07 69.6356 1110.08 69.63 1110.09 69.6251C1110.09 69.6241 1110.09 69.6231 1110.09 69.6221M1110.04 69.6012C1110.05 69.5926 1110.06 69.5854 1110.07 69.5795L1110.09 69.6221M1110.04 69.6012L1110.03 69.5779C1110.03 69.5783 1110.03 69.5774 1110.04 69.5742L1110.06 69.563C1110.06 69.5613 1110.06 69.5594 1110.07 69.5575C1110.08 69.5494 1110.1 69.5392 1110.12 69.5299C1110.14 69.5187 1110.17 69.5034 1110.19 69.49C1110.21 69.4835 1110.23 69.4735 1110.26 69.4642C1110.27 69.4595 1110.29 69.4529 1110.31 69.447C1110.33 69.442 1110.38 69.4322 1110.44 69.4322H1111.25L1110.96 70.0101C1111.06 70.1505 1111.15 70.3128 1111.22 70.4727C1111.31 70.6919 1111.4 70.9679 1111.4 71.2293C1111.4 71.4495 1111.33 71.6991 1111.27 71.8547L1111.25 71.9029L1111.22 71.9462C1111.21 71.9724 1111.19 71.9977 1111.17 72.0225C1111.07 72.184 1110.98 72.3232 1110.75 72.526C1110.43 72.8244 1109.96 73.1117 1109.57 73.3462C1109.55 73.362 1109.52 73.3775 1109.5 73.3928C1108.99 73.703 1108.47 73.8095 1107.98 73.8361C1107.92 73.8403 1107.86 73.8461 1107.8 73.8524C1107.57 73.8749 1107.28 73.903 1107 73.882L1107 73.8476M1110.09 69.6221L1110.1 69.6385C1110.15 69.6066 1110.21 69.5903 1110.25 69.5822M1110.09 69.6221C1110.15 69.5868 1110.2 69.5719 1110.23 69.5655C1110.24 69.5636 1110.25 69.562 1110.25 69.5606V69.5822M1110.25 69.5822V69.8401M1110.25 69.5822C1110.25 69.5818 1110.26 69.5815 1110.26 69.5811C1110.3 69.574 1110.34 69.573 1110.37 69.5743L1110.29 69.8606L1110.25 69.8401M1110.25 69.8401L1110.16 69.7939L1110.25 70.014M1110.25 69.8401V70.0092L1110.25 70.014M1110.25 70.014L1110.25 70.0148L1110.25 70.0248M1110.25 70.014L1110.25 70.0248M1110.25 70.0248L1110.24 70.0555L1110.24 70.0667M1110.25 70.0248V70.0479V70.0536L1110.24 70.0667M1110.24 70.0667L1110.23 70.0803L1110.22 70.0911L1110 70.3708L1110.22 70.1479L1110.23 70.0971L1110.24 70.0846L1110.24 70.0667ZM1107 73.8476C1107 73.8475 1107.01 73.8474 1107.01 73.8474C1107.02 73.8458 1107.03 73.8435 1107.04 73.8403V73.81M1107 73.8476L1107.01 73.8228C1107.01 73.8226 1107.01 73.8223 1107.01 73.8221C1107.02 73.8187 1107.03 73.8147 1107.04 73.81M1107 73.8476C1107 73.8485 1106.99 73.8492 1106.99 73.8498C1106.97 73.8514 1106.96 73.852 1106.96 73.8523C1106.94 73.8528 1106.93 73.8524 1106.93 73.8522L1106.81 73.8043M1107.04 73.81C1107.07 73.7991 1107.1 73.7844 1107.13 73.7643C1107.18 73.7285 1107.24 73.6751 1107.28 73.6058C1107.28 73.6071 1107.27 73.6084 1107.27 73.6097L1107.26 73.6118L1107.26 73.6136C1107.18 73.632 1107.11 73.6503 1107.04 73.6694M1107.04 73.81V73.6694M1107.04 73.6694V73.6153L1107.02 73.6296L1107.01 73.6371M1107.04 73.6694C1107.03 73.6714 1107.03 73.6734 1107.02 73.6754C1107.02 73.6761 1107.01 73.6768 1107.01 73.6776L1107.01 73.6371M1107.01 73.6371L1107.01 73.6069C1106.99 73.611 1106.97 73.615 1106.96 73.6189L1106.93 73.5129L1106.86 73.6856L1106.86 73.6887M1107.01 73.6371L1106.97 73.666L1106.86 73.6884C1106.86 73.6885 1106.86 73.6886 1106.86 73.6887M1106.86 73.6887C1106.86 73.6897 1106.85 73.6907 1106.85 73.6916C1106.83 73.6951 1106.81 73.6983 1106.79 73.7012L1106.77 73.7411M1106.86 73.6887L1106.85 73.721C1106.84 73.7221 1106.84 73.7231 1106.84 73.7242C1106.81 73.7298 1106.79 73.7354 1106.77 73.7411M1106.77 73.7411C1106.76 73.7424 1106.76 73.7438 1106.75 73.7452C1106.75 73.7455 1106.75 73.7458 1106.75 73.7461C1106.75 73.7467 1106.75 73.7477 1106.74 73.7491C1106.74 73.7497 1106.74 73.7504 1106.74 73.7511C1106.75 73.7565 1106.75 73.7613 1106.76 73.7656M1106.77 73.7411L1106.76 73.7656M1106.76 73.7656L1106.73 73.8264C1106.73 73.8268 1106.73 73.8271 1106.73 73.8275C1106.74 73.8295 1106.76 73.8366 1106.8 73.841C1106.8 73.8411 1106.8 73.8411 1106.8 73.8412M1106.76 73.7656C1106.76 73.7692 1106.77 73.7723 1106.77 73.7752C1106.78 73.7864 1106.8 73.7953 1106.81 73.8021C1106.81 73.8029 1106.81 73.8036 1106.81 73.8043M1106.8 73.8412L1106.81 73.8043M1106.8 73.8412C1106.8 73.8412 1106.8 73.8413 1106.8 73.8413L1106.8 73.8414C1106.81 73.8427 1106.85 73.8473 1106.9 73.8436C1106.91 73.847 1106.91 73.849 1106.91 73.8497C1106.92 73.8507 1106.92 73.8514 1106.92 73.8519C1106.92 73.8517 1106.92 73.8516 1106.92 73.8515C1106.92 73.8515 1106.92 73.8516 1106.92 73.8518C1106.92 73.8522 1106.93 73.8526 1106.93 73.8526C1106.93 73.8526 1106.93 73.8526 1106.93 73.8525L1106.81 73.8043M1106.99 72.5867C1106.98 72.5743 1106.97 72.5587 1106.96 72.5472C1106.96 72.5442 1106.95 72.5376 1106.95 72.5298C1106.94 72.526 1106.94 72.5187 1106.93 72.51L1106.93 72.5096C1106.92 72.5044 1106.9 72.4812 1106.87 72.4569L1106.87 72.4566C1106.86 72.4474 1106.81 72.4103 1106.73 72.3847C1106.68 72.3672 1106.41 72.2888 1106.2 72.515C1106.2 72.4978 1106.19 72.4797 1106.18 72.4608C1106.16 72.3909 1106.17 72.2794 1106.23 72.1747C1106.25 72.1389 1106.27 72.1105 1106.29 72.0883C1106.38 72.0619 1106.47 72.0359 1106.57 72.0087C1106.65 71.9876 1106.73 71.9657 1106.81 71.9423C1106.94 71.905 1107.02 71.9335 1107.07 71.9676C1107.14 72.0095 1107.2 72.0897 1107.23 72.1993C1107.26 72.3089 1107.24 72.4127 1107.21 72.4857C1107.2 72.5023 1107.19 72.5192 1107.18 72.5356C1107.12 72.5538 1107.06 72.5708 1106.99 72.5867ZM1106.68 73.8072L1106.68 73.8058C1106.69 73.8093 1106.69 73.8125 1106.7 73.8155C1106.69 73.8129 1106.68 73.8101 1106.68 73.8072ZM1107.14 71.8305C1107.14 71.8304 1107.14 71.8304 1107.14 71.8306L1107.14 71.8305ZM1107.18 71.791L1107.1 71.6468L1107.21 71.768C1107.2 71.771 1107.2 71.7736 1107.2 71.7757C1107.19 71.7814 1107.19 71.7855 1107.18 71.7875C1107.18 71.7891 1107.18 71.7903 1107.18 71.791Z" fill="#231F20" stroke="white"/>
<path d="M1055.18 94.4153C1055.18 94.4153 1063.06 93.3267 1060.68 98.5846C1060.68 98.5846 1059.87 100.438 1058.32 101.619" stroke="white" stroke-width="0.75" stroke-miterlimit="10"/>
<path d="M1063.52 106.645C1063.52 106.645 1068.49 103.148 1069.64 107.78C1069.64 107.78 1069.94 109.17 1069.9 109.934" stroke="white" stroke-width="0.75" stroke-miterlimit="10"/>
<path d="M1074.56 111.115C1074.56 111.115 1079.27 105.093 1082.83 109.031C1082.83 109.031 1084.15 110.351 1084.84 111.393" stroke="white" stroke-width="0.75" stroke-miterlimit="10"/>
<path d="M1083.34 117.601C1083.34 117.601 1087.11 114.011 1089.85 116.813C1089.85 116.813 1091.17 118.064 1091.03 120.288" stroke="white" stroke-width="0.75" stroke-miterlimit="10"/>
<path d="M1061.47 80.4713C1061.47 80.4713 1064.63 83.5751 1061.77 85.5671C1058.9 87.5591 1057.56 84.849 1057.56 84.849" stroke="white" stroke-width="0.75" stroke-miterlimit="10"/>
<path d="M1076.13 81.4904C1076.13 81.4904 1080.94 81.583 1078.84 85.8681C1078.84 85.8681 1077.91 87.6053 1076.76 88.1381" stroke="white" stroke-width="0.75" stroke-miterlimit="10"/>
<path d="M1078.03 89.8754C1078.03 89.8754 1080.55 84.4321 1084.84 87.6981C1084.84 87.6981 1087.06 89.25 1085.98 91.96" stroke="white" stroke-width="0.75" stroke-miterlimit="10"/>
<path d="M1118.06 73.2678C1118.79 73.2678 1119.38 72.6767 1119.38 71.9475C1119.38 71.2184 1118.79 70.6273 1118.06 70.6273C1117.33 70.6273 1116.74 71.2184 1116.74 71.9475C1116.74 72.6767 1117.33 73.2678 1118.06 73.2678Z" stroke="white" stroke-width="0.75" stroke-miterlimit="10"/>
<path d="M1122.26 71.1598C1123.4 71.1598 1124.32 70.2368 1124.32 69.0983C1124.32 67.9598 1123.4 67.0368 1122.26 67.0368C1121.13 67.0368 1120.21 67.9598 1120.21 69.0983C1120.21 70.2368 1121.13 71.1598 1122.26 71.1598Z" stroke="white" stroke-width="0.75" stroke-miterlimit="10"/>
<path d="M1123.6 76.7189C1124.14 76.7189 1124.57 76.2834 1124.57 75.7461C1124.57 75.2088 1124.14 74.7733 1123.6 74.7733C1123.07 74.7733 1122.63 75.2088 1122.63 75.7461C1122.63 76.2834 1123.07 76.7189 1123.6 76.7189Z" stroke="white" stroke-width="0.75" stroke-miterlimit="10"/>
<path d="M1121.85 62.2191C1122.53 62.2191 1123.07 61.6695 1123.07 60.9915C1123.07 60.3135 1122.53 59.7639 1121.85 59.7639C1121.17 59.7639 1120.62 60.3135 1120.62 60.9915C1120.62 61.6695 1121.17 62.2191 1121.85 62.2191Z" stroke="white" stroke-width="0.75" stroke-miterlimit="10"/>
<path d="M1113.58 47.5107C1114.38 47.5107 1115.03 46.8573 1115.03 46.0514C1115.03 45.2455 1114.38 44.5922 1113.58 44.5922C1112.78 44.5922 1112.12 45.2455 1112.12 46.0514C1112.12 46.8573 1112.78 47.5107 1113.58 47.5107Z" stroke="white" stroke-width="0.75" stroke-miterlimit="10"/>
<path d="M1109.19 43.0172C1109.66 43.0172 1110.05 42.6335 1110.05 42.1602C1110.05 41.6869 1109.66 41.3032 1109.19 41.3032C1108.72 41.3032 1108.34 41.6869 1108.34 42.1602C1108.34 42.6335 1108.72 43.0172 1109.19 43.0172Z" stroke="white" stroke-width="0.75" stroke-miterlimit="10"/>
<path d="M1107 47.9741C1107.4 47.9741 1107.74 47.6422 1107.74 47.2329C1107.74 46.8235 1107.4 46.4917 1107 46.4917C1106.59 46.4917 1106.26 46.8235 1106.26 47.2329C1106.26 47.6422 1106.59 47.9741 1107 47.9741Z" stroke="white" stroke-width="0.75" stroke-miterlimit="10"/>
<path d="M1089.35 57.6097C1089.83 57.6097 1090.23 57.2156 1090.23 56.7295C1090.23 56.2434 1089.83 55.8493 1089.35 55.8493C1088.86 55.8493 1088.47 56.2434 1088.47 56.7295C1088.47 57.2156 1088.86 57.6097 1089.35 57.6097Z" stroke="white" stroke-width="0.75" stroke-miterlimit="10"/>
<path d="M1128.5 54.2048C1127.44 53.7879 1126.68 52.7687 1126.68 51.5643C1126.68 50.0124 1127.95 48.7384 1129.49 48.7384C1130.42 48.7384 1131.23 49.1785 1131.74 49.8502" stroke="white" stroke-width="0.75" stroke-miterlimit="10"/>
<path d="M1135.25 47.2792C1134.79 46.9086 1134.6 46.2832 1134.79 45.7042C1135.04 44.9398 1135.85 44.5229 1136.61 44.7777C1137.05 44.9166 1137.37 45.2641 1137.53 45.681" stroke="white" stroke-width="0.75" stroke-miterlimit="10"/>
<path d="M1138.13 80.9578C1137.03 80.1935 1136.29 78.9195 1136.29 77.4603C1136.29 75.1208 1138.18 73.2447 1140.49 73.2447C1141.07 73.2447 1141.62 73.3605 1142.13 73.5689" stroke="white" stroke-width="0.75" stroke-miterlimit="10"/>
<path d="M1130.86 88.9026C1129.93 87.9066 1129.52 86.4705 1129.87 85.0575C1130.4 82.7876 1132.68 81.3978 1134.95 81.9306C1135.5 82.0696 1136.03 82.3012 1136.47 82.6255" stroke="white" stroke-width="0.75" stroke-miterlimit="10"/>
<path d="M1130.67 95.805C1130.51 95.8513 1130.35 95.8745 1130.17 95.8745C1128.96 95.8745 1127.97 94.8785 1127.97 93.6741C1127.97 92.4696 1128.96 91.4736 1130.17 91.4736" stroke="white" stroke-width="0.75" stroke-miterlimit="10"/>
<path d="M1137.46 105.927C1137.46 103.101 1139.75 100.831 1142.55 100.831C1144.86 100.831 1146.82 102.383 1147.42 104.491" stroke="white" stroke-width="0.75" stroke-miterlimit="10"/>
<path d="M1150.82 101.874C1150.12 101.248 1149.71 100.345 1149.71 99.3488C1149.71 97.4727 1151.23 95.9439 1153.1 95.9439C1153.89 95.9439 1154.61 96.2219 1155.18 96.662" stroke="white" stroke-width="0.75" stroke-miterlimit="10"/>
<path d="M1157.26 92.6781C1155.23 92.377 1153.66 90.5935 1153.66 88.4625C1153.66 86.3316 1155.21 84.5712 1157.24 84.2469" stroke="white" stroke-width="0.75" stroke-miterlimit="10"/>
<path d="M1154.12 74.4952C1152.78 74.8195 1151.79 76.0239 1151.79 77.4832C1151.79 79.1741 1153.15 80.5407 1154.84 80.5407C1155.21 80.5407 1155.55 80.4712 1155.9 80.3554" stroke="white" stroke-width="0.75" stroke-miterlimit="10"/>
<path d="M1073.06 128.14C1073.06 128.001 1073.08 127.839 1073.08 127.677C1073.08 125.917 1071.65 124.48 1069.9 124.48C1068.63 124.48 1067.54 125.222 1067.03 126.264" stroke="white" stroke-width="0.75" stroke-miterlimit="10"/>
<path d="M1083.06 121.353C1082.72 121.909 1082.53 122.535 1082.53 123.23C1082.53 125.198 1084.13 126.797 1086.09 126.797C1086.99 126.797 1087.8 126.472 1088.42 125.94" stroke="white" stroke-width="0.75" stroke-miterlimit="10"/>
<path d="M1088.65 130.989C1088.12 130.572 1087.45 130.341 1086.74 130.341C1085.01 130.341 1083.62 131.73 1083.62 133.467C1083.62 134.116 1083.83 134.718 1084.15 135.228" stroke="white" stroke-width="0.75" stroke-miterlimit="10"/>
<path d="M1113.35 134.348C1112.82 133.699 1112.49 132.889 1112.49 131.985C1112.49 129.947 1114.13 128.302 1116.17 128.302C1117.11 128.302 1117.97 128.65 1118.62 129.252" stroke="white" stroke-width="0.75" stroke-miterlimit="10"/>
<path d="M1114.41 113.594C1113.53 114.312 1112.98 115.401 1112.98 116.628C1112.98 118.782 1114.73 120.543 1116.88 120.543C1117.6 120.543 1118.25 120.357 1118.82 120.033" stroke="white" stroke-width="0.75" stroke-miterlimit="10"/>
<path d="M1107.34 103.217C1105.22 103.217 1103.48 104.954 1103.48 107.085C1103.48 109.216 1105.22 110.954 1107.34 110.954C1108.31 110.954 1109.21 110.583 1109.88 109.981" stroke="white" stroke-width="0.75" stroke-miterlimit="10"/>
<path d="M1124.23 115.401C1123.67 115.98 1123.33 116.79 1123.33 117.671C1123.33 119.477 1124.78 120.936 1126.58 120.936C1127.79 120.936 1128.85 120.288 1129.4 119.292" stroke="white" stroke-width="0.75" stroke-miterlimit="10"/>
<path d="M1136.56 116.744C1136.96 117.207 1137.19 117.809 1137.19 118.458C1137.19 119.94 1135.99 121.145 1134.51 121.145C1133.4 121.145 1132.43 120.473 1132.04 119.5" stroke="white" stroke-width="0.75" stroke-miterlimit="10"/>
<path d="M333.436 81.7586L346.196 82.0903" stroke="#231F20" stroke-width="0.75" stroke-miterlimit="10"/>
<path d="M333.435 81.7586L336.744 32.7112C336.885 30.9578 337.547 29.2518 338.823 28.0671C340.146 26.7876 343.124 25.9346 345.912 27.1193C350.827 29.157 349.457 36.6444 349.22 38.54C349.173 39.0139 349.126 39.4878 349.079 39.9616L346.101 82.1377L340.855 92.7528C340.146 94.1745 338.114 94.0797 337.547 92.6106L333.341 81.806L333.435 81.7586Z" stroke="#231F20" stroke-width="0.75" stroke-miterlimit="10"/>
<path d="M323.368 53.1357L310.561 26.9297C310.561 26.9297 309.379 23.6125 305.268 25.6502C301.156 27.6879 255.077 50.245 255.077 50.245C255.077 50.245 252.241 51.8088 254.321 56.4056C256.4 61.0023 283.197 115.642 283.197 115.642L307.158 123.887L345.014 105.311C345.014 105.311 347.566 102.799 346.432 100.572C345.297 98.3447 344.447 96.5439 344.447 96.5439" stroke="#231F20" stroke-width="0.75" stroke-miterlimit="10"/>
<path d="M282.914 114.978L296.903 108.107C296.903 108.107 300.306 107.064 301.629 110.476C302.953 113.888 307.962 123.461 307.962 123.461" stroke="#231F20" stroke-width="0.75" stroke-miterlimit="10"/>
<path d="M258.762 65.5042L315.758 37.5448" stroke="#231F20" stroke-width="0.75" stroke-miterlimit="10"/>
<path d="M261.079 47.3069C261.079 47.3069 257.534 41.1464 261.882 38.9665C266.23 36.7866 267.506 40.0564 268.499 42.2837C269.491 44.511 273.366 49.8659 268.64 52.6145" stroke="#231F20" stroke-width="0.75" stroke-miterlimit="10"/>
<path d="M276.534 39.6773C276.534 39.6773 272.989 33.5168 277.337 31.3369C281.685 29.157 282.961 32.4268 283.954 34.6541C284.946 36.8814 288.821 42.2363 284.095 44.9849" stroke="#231F20" stroke-width="0.75" stroke-miterlimit="10"/>
<path d="M291.231 32.5216C291.231 32.5216 287.686 26.361 292.034 24.1812C296.382 22.0013 297.658 25.2711 298.651 27.4984C299.643 29.7257 303.519 35.0806 298.793 37.8291" stroke="#231F20" stroke-width="0.75" stroke-miterlimit="10"/>
<path d="M274.642 71.9965C275.66 71.9965 276.485 71.169 276.485 70.1483C276.485 69.1276 275.66 68.3002 274.642 68.3002C273.624 68.3002 272.799 69.1276 272.799 70.1483C272.799 71.169 273.624 71.9965 274.642 71.9965Z" fill="black" stroke="#231F20" stroke-width="0.75" stroke-miterlimit="10"/>
<path d="M326.912 62.187C327.93 62.187 328.756 61.3595 328.756 60.3388C328.756 59.3181 327.93 58.4907 326.912 58.4907C325.895 58.4907 325.069 59.3181 325.069 60.3388C325.069 61.3595 325.895 62.187 326.912 62.187Z" fill="black" stroke="#231F20" stroke-width="0.75" stroke-miterlimit="10"/>
<path d="M279.794 64.3669L308.859 50.1028" stroke="#231F20" stroke-width="0.75" stroke-miterlimit="10"/>
<path d="M278.99 81.2373L315.334 63.4191" stroke="#231F20" stroke-width="0.75" stroke-miterlimit="10"/>
<path d="M289.057 101.425L325.447 83.6068" stroke="#231F20" stroke-width="0.75" stroke-miterlimit="10"/>
<path d="M284.284 91.6629L320.675 73.7973" stroke="#231F20" stroke-width="0.75" stroke-miterlimit="10"/>
<path d="M457.704 28.5739L428.639 57.718C426.371 59.9927 422.637 59.9927 420.368 57.718L414.13 51.4627C411.862 49.188 411.862 45.4443 414.13 43.1697L443.243 13.9781H443.337L444.33 18.0536L449.717 18.4801L448.441 22.2238L454.727 22.5081L452.648 26.9153L457.704 28.4317C457.704 28.4317 457.799 28.5739 457.752 28.6213L457.704 28.5739Z" stroke="#231F20" stroke-width="0.75" stroke-miterlimit="10"/>
<path d="M443.29 13.8834L461.438 9.19191C462.053 9.04974 462.572 9.57102 462.431 10.1871L457.799 28.4318" stroke="#231F20" stroke-width="0.75" stroke-miterlimit="10"/>
<path d="M456.995 10.3293C456.995 10.3293 457.042 14.7364 461.438 14.2151" stroke="#231F20" stroke-width="0.75" stroke-miterlimit="10"/>
<path d="M424.669 32.5546C424.669 32.5546 428.024 43.8331 438.753 47.5769" stroke="#231F20" stroke-width="0.75" stroke-miterlimit="10"/>
<path d="M418.242 38.9995C418.242 38.9995 420.889 49.0933 433.696 52.6474" stroke="#231F20" stroke-width="0.75" stroke-miterlimit="10"/>
<path d="M711.636 67.7629C711.636 74.6817 709.273 81.0792 705.35 86.1498C699.915 93.2107 691.314 97.7601 681.72 97.7601C676.521 97.7601 671.653 96.4332 667.4 94.1111C658.089 89.0405 651.804 79.1363 651.804 67.7629C651.804 51.1769 665.178 37.7658 681.72 37.7658C698.261 37.7658 711.636 51.1769 711.636 67.7629Z" stroke="#231F20" stroke-width="0.75" stroke-miterlimit="10"/>
<path d="M711.636 67.7629C711.636 74.6817 709.273 81.0792 705.35 86.1498C699.915 93.2107 691.314 97.7601 681.72 97.7601C676.521 97.7601 671.653 96.4332 667.4 94.1111C658.089 89.0405 651.804 79.1363 651.804 67.7629C651.804 51.1769 665.178 37.7658 681.72 37.7658C698.261 37.7658 711.636 51.1769 711.636 67.7629Z" stroke="#231F20" stroke-width="0.75" stroke-miterlimit="10"/>
<path d="M679.026 69.5163C684.142 69.5163 688.289 65.3579 688.289 60.2281C688.289 55.0984 684.142 50.9399 679.026 50.9399C673.91 50.9399 669.763 55.0984 669.763 60.2281C669.763 65.3579 673.91 69.5163 679.026 69.5163Z" stroke="#231F20" stroke-width="0.75" stroke-miterlimit="10"/>
<path d="M681.672 30.6101C661.209 30.6101 644.62 47.2436 644.62 67.763C644.62 83.6382 654.545 97.1914 668.487 102.499C672.551 104.063 676.994 104.916 681.625 104.916C691.739 104.916 700.86 100.888 707.524 94.3007C714.377 87.5715 718.678 78.1885 718.678 67.763C718.678 47.2436 702.089 30.6101 681.625 30.6101H681.672ZM705.303 86.1498C699.868 93.2108 691.266 97.7601 681.672 97.7601C676.474 97.7601 671.606 96.4332 667.352 94.1111C658.042 89.0405 651.756 79.1363 651.756 67.763C651.756 51.1769 665.131 37.7658 681.672 37.7658C698.214 37.7658 711.588 51.1769 711.588 67.763C711.588 74.6817 709.225 81.0792 705.303 86.1498Z" stroke="#231F20" stroke-width="0.75" stroke-miterlimit="10"/>
<path d="M681.673 97.8074C676.474 97.8074 671.606 96.4806 667.353 94.1585C668.061 83.6382 676.805 75.3452 687.486 75.3452C695.236 75.3452 701.995 79.7523 705.35 86.1972C699.915 93.2581 691.314 97.8074 681.72 97.8074H681.673Z" stroke="#231F20" stroke-width="0.75" stroke-miterlimit="10"/>
<path d="M864.543 46.2653C864.543 58.0651 854.996 67.6851 843.181 67.6851C831.366 67.6851 821.819 58.1125 821.819 46.2653C821.819 36.7876 827.963 28.7788 836.47 25.9355L833.162 16.3156L850.412 23.3291L842.378 40.863L838.408 31.8117C832.358 33.8494 828.01 39.5361 828.01 46.2653C828.01 54.6531 834.816 61.4771 843.181 61.4771C851.546 61.4771 858.352 54.6531 858.352 46.2653C858.352 43.3272 857.548 40.6261 856.083 38.304C857.123 36.8823 858.777 35.5554 861.329 34.9868C863.361 38.2566 864.543 42.1425 864.543 46.2653Z" stroke="#231F20" stroke-width="0.75" stroke-miterlimit="10"/>
<path d="M775.679 78.5989C762.918 78.5989 752.568 88.9771 752.568 101.772C752.568 114.567 762.918 124.945 775.679 124.945C788.439 124.945 798.789 114.567 798.789 101.772C798.789 88.9771 788.439 78.5989 775.679 78.5989ZM775.679 117.742C766.888 117.742 759.752 110.586 759.752 101.772C759.752 92.9577 766.888 85.802 775.679 85.802C784.469 85.802 791.606 92.9577 791.606 101.772C791.606 110.586 784.469 117.742 775.679 117.742Z" stroke="#231F20" stroke-width="0.75" stroke-miterlimit="10"/>
<path d="M769.158 108.88L773.412 105.563C774.404 104.805 774.83 103.525 774.451 102.341L771.19 91.2043C771.19 91.2043 770.529 88.977 773.175 88.9297C774.168 88.9297 775.066 89.5931 775.397 90.5409L779.981 103.288C780.406 104.473 780.028 105.8 779.083 106.606L772.041 112.482C770.86 113.477 769.064 113.051 768.449 111.629C768.024 110.586 768.308 109.449 769.158 108.833V108.88Z" stroke="#231F20" stroke-width="0.75" stroke-miterlimit="10"/>
<path d="M135.469 53.7957C142.228 53.5587 149.931 53.7957 148.324 59.435C146.717 65.0742 138.069 63.6526 131.074 62.9417C124.079 62.2309 120.582 62.7048 122.898 53.1323C125.214 43.5597 137.36 43.3228 144.827 42.6119C152.294 41.9011 147.19 28.5848 145.063 19.6757C142.936 10.7666 155.082 5.4117 156.5 16.169C157.918 26.9262 166.283 34.1767 166.283 34.1767C166.283 34.1767 185.471 47.9669 176.917 61.3305C176.917 61.3305 185.849 69.9079 175.877 78.7222C165.905 87.5365 154.374 91.4698 147.568 91.1381" stroke="#231F20" stroke-width="0.75" stroke-miterlimit="10"/>
<path d="M126.584 62.4678C126.584 62.4678 119.637 69.0075 125.45 73.9359C130.176 77.9166 137.879 76.8267 143.834 74.3624C147.095 73.0356 148.608 68.9601 146.67 65.9746C145.819 64.6477 144.354 63.6052 141.849 63.5104" stroke="#231F20" stroke-width="0.75" stroke-miterlimit="10"/>
<path d="M127.813 75.405C127.813 75.405 123.796 80.0017 126.112 82.5607C128.428 85.1197 134.004 88.2 144.165 84.6458C154.326 81.0917 147.521 73.7938 141.755 75.0733" stroke="#231F20" stroke-width="0.75" stroke-miterlimit="10"/>
<path d="M132.823 86.0201C132.823 86.0201 127.955 92.6545 135.422 94.0288C142.889 95.4031 157.635 87.4418 145.961 83.935" stroke="#231F20" stroke-width="0.75" stroke-miterlimit="10"/>
<path d="M160.943 66.5433C160.943 66.5433 172.853 67.4437 176.87 61.2831" stroke="#231F20" stroke-width="0.75" stroke-miterlimit="10"/>
<path d="M177.343 46.9717C177.343 46.9717 179.469 41.7115 184.668 43.0858C187.173 43.7493 189.063 45.8344 189.772 48.346C191.237 53.5587 191.568 63.3682 188.78 72.3247C188.78 72.3247 187.078 77.2532 178.477 75.7367" stroke="#231F20" stroke-width="0.75" stroke-miterlimit="10"/>
<path d="M899.261 100.763C906.02 100.526 913.723 100.763 912.116 106.403C910.509 112.042 901.861 110.62 894.866 109.909C887.871 109.199 884.374 109.673 886.69 100.1C889.006 90.5275 901.152 90.2905 908.619 89.5797C916.086 88.8688 910.982 75.5526 908.855 66.6435C906.728 57.7344 918.874 52.3794 920.292 63.1367C921.71 73.894 930.075 81.1445 930.075 81.1445C930.075 81.1445 949.263 94.9346 940.709 108.298C940.709 108.298 949.641 116.876 939.669 125.69C929.697 134.504 918.165 138.438 911.36 138.106" stroke="#231F20" stroke-width="0.75" stroke-miterlimit="10"/>
<path d="M890.377 109.436C890.377 109.436 883.43 115.975 889.243 120.904C893.969 124.884 901.672 123.794 907.627 121.33C910.888 120.003 912.401 115.928 910.463 112.942C909.612 111.615 908.147 110.573 905.642 110.478" stroke="#231F20" stroke-width="0.75" stroke-miterlimit="10"/>
<path d="M891.605 122.373C891.605 122.373 887.588 126.969 889.904 129.528C892.22 132.087 897.796 135.168 907.957 131.614C918.118 128.059 911.313 120.761 905.547 122.041" stroke="#231F20" stroke-width="0.75" stroke-miterlimit="10"/>
<path d="M896.615 132.988C896.615 132.988 891.747 139.622 899.214 140.997C906.681 142.371 921.427 134.41 909.753 130.903" stroke="#231F20" stroke-width="0.75" stroke-miterlimit="10"/>
<path d="M924.734 113.511C924.734 113.511 936.644 114.411 940.661 108.251" stroke="#231F20" stroke-width="0.75" stroke-miterlimit="10"/>
<path d="M941.135 93.9394C941.135 93.9394 943.261 88.6793 948.46 90.0536C950.965 90.717 952.855 92.8021 953.564 95.3137C955.029 100.526 955.36 110.336 952.572 119.292C952.572 119.292 950.87 124.221 942.269 122.704" stroke="#231F20" stroke-width="0.75" stroke-miterlimit="10"/>
<path d="M518.64 146.598C537.929 146.598 553.566 130.918 553.566 111.577C553.566 92.236 537.929 76.5568 518.64 76.5568C499.352 76.5568 483.715 92.236 483.715 111.577C483.715 130.918 499.352 146.598 518.64 146.598Z" stroke="#231F20" stroke-width="0.75" stroke-miterlimit="10"/>
<path d="M513.962 107.454C513.962 107.454 500.588 103.616 496.287 98.2609C496.287 98.2609 494.349 96.8393 496.287 94.4698C497.279 93.2377 498.697 91.5791 499.832 90.2522C501.486 88.3093 504.51 88.404 505.928 90.4891C505.928 90.4891 505.928 90.5366 505.975 90.5839C508.338 94.0907 513.348 102.099 513.915 107.454H513.962Z" stroke="#231F20" stroke-width="0.75" stroke-miterlimit="10"/>
<path d="M518.12 105.369C518.12 105.369 511.173 93.2851 511.787 86.4137C511.787 86.4137 511.362 84.0443 514.387 83.7126C515.946 83.523 518.12 83.2861 519.869 83.1439C522.374 82.907 524.501 85.0868 524.075 87.5985C524.075 87.5985 524.075 87.6932 524.075 87.7406C523.366 91.9108 521.381 101.152 518.12 105.417V105.369Z" stroke="#231F20" stroke-width="0.75" stroke-miterlimit="10"/>
<path d="M522.563 106.696C522.563 106.696 525.919 93.1429 531.118 88.641C531.118 88.641 532.441 86.6506 534.899 88.4988C536.175 89.4466 537.876 90.8209 539.246 91.9108C541.231 93.4746 541.231 96.5075 539.246 98.024C539.246 98.024 539.199 98.0713 539.152 98.1187C535.749 100.63 527.951 105.89 522.658 106.696H522.563Z" stroke="#231F20" stroke-width="0.75" stroke-miterlimit="10"/>
<path d="M524.832 110.819C524.832 110.819 536.647 103.426 543.5 103.805C543.5 103.805 545.816 103.332 546.288 106.317C546.525 107.881 546.808 110.061 547.045 111.767C547.375 114.278 545.249 116.458 542.791 116.127C542.791 116.127 542.697 116.127 542.649 116.127C538.49 115.558 529.227 113.899 524.832 110.772V110.819Z" stroke="#231F20" stroke-width="0.75" stroke-miterlimit="10"/>
<path d="M523.649 115.321C523.649 115.321 537.26 118.212 541.939 123.282C541.939 123.282 543.971 124.562 542.223 127.026C541.325 128.353 540.002 130.106 539.009 131.481C537.497 133.518 534.472 133.613 532.912 131.67C532.912 131.67 532.865 131.623 532.818 131.575C530.219 128.258 524.689 120.628 523.697 115.321H523.649Z" stroke="#231F20" stroke-width="0.75" stroke-miterlimit="10"/>
<path d="M519.633 117.738C519.633 117.738 527.431 129.301 527.289 136.172C527.289 136.172 527.856 138.494 524.879 139.063C523.319 139.347 521.145 139.726 519.444 140.011C516.939 140.437 514.67 138.399 514.907 135.888C514.907 135.888 514.907 135.793 514.907 135.746C515.332 131.528 516.655 122.192 519.585 117.69L519.633 117.738Z" stroke="#231F20" stroke-width="0.75" stroke-miterlimit="10"/>
<path d="M515.096 116.695C515.096 116.695 512.685 130.438 507.818 135.272C507.818 135.272 506.636 137.357 504.084 135.651C502.761 134.798 500.965 133.566 499.547 132.57C497.468 131.149 497.231 128.116 499.169 126.457C499.169 126.457 499.216 126.41 499.263 126.363C502.477 123.614 509.897 117.833 515.143 116.648L515.096 116.695Z" stroke="#231F20" stroke-width="0.75" stroke-miterlimit="10"/>
<path d="M512.543 112.762C512.543 112.762 501.295 120.96 494.443 121.055C494.443 121.055 492.174 121.718 491.465 118.733C491.087 117.169 490.662 115.037 490.331 113.331C489.811 110.866 491.749 108.497 494.301 108.639C494.301 108.639 494.395 108.639 494.443 108.639C498.649 108.923 508.006 109.919 512.591 112.715L512.543 112.762Z" stroke="#231F20" stroke-width="0.75" stroke-miterlimit="10"/>
<path d="M1204.65 60.1829L1233.72 15.59C1233.72 15.59 1242.7 3.97972 1258.24 9.76116C1260.89 10.7563 1263.16 12.5571 1264.62 14.974C1267.79 20.092 1276.53 29.9962 1295.67 26.8212C1321.24 22.6036 1319.12 47.8618 1319.12 47.8618L1311.08 100.843C1311.08 100.843 1307.25 116.291 1295.34 112.405C1283.43 108.52 1280.31 105.724 1280.65 99.4209C1280.98 93.1182 1278.57 82.5504 1264.91 77.2902C1251.25 72.0301 1243.92 67.8125 1235.13 76.9586C1226.34 86.1046 1214.81 82.2187 1214.81 82.2187C1214.81 82.2187 1194.16 76.2477 1204.65 60.0881V60.1829Z" stroke="white" stroke-width="0.75" stroke-miterlimit="10"/>
<path d="M1248.93 65.9643C1253.63 65.9643 1257.44 62.1454 1257.44 57.4344C1257.44 52.7234 1253.63 48.9044 1248.93 48.9044C1244.23 48.9044 1240.43 52.7234 1240.43 57.4344C1240.43 62.1454 1244.23 65.9643 1248.93 65.9643Z" stroke="white" stroke-width="0.75" stroke-miterlimit="10"/>
<path d="M1281.45 77.6694C1286.15 77.6694 1289.96 73.8503 1289.96 69.1394C1289.96 64.4284 1286.15 60.6094 1281.45 60.6094C1276.75 60.6094 1272.94 64.4284 1272.94 69.1394C1272.94 73.8503 1276.75 77.6694 1281.45 77.6694Z" stroke="white" stroke-width="0.75" stroke-miterlimit="10"/>
<path d="M1277.67 36.9688C1277.96 36.3242 1277.67 35.5669 1277.03 35.2773C1276.38 34.9878 1275.63 35.2756 1275.34 35.9202L1268.6 50.9634C1268.31 51.608 1268.6 52.3653 1269.24 52.6549C1269.89 52.9445 1270.64 52.6566 1270.93 52.012L1277.67 36.9688Z" stroke="white" stroke-width="0.75" stroke-miterlimit="10"/>
<path d="M1290.85 48.1462C1293.15 48.1462 1295.01 46.2791 1295.01 43.9759C1295.01 41.6728 1293.15 39.8058 1290.85 39.8058C1288.56 39.8058 1286.69 41.6728 1286.69 43.9759C1286.69 46.2791 1288.56 48.1462 1290.85 48.1462Z" stroke="white" stroke-width="0.75" stroke-miterlimit="10"/>
<path d="M1302.29 44.4498C1304.59 44.4498 1306.45 42.5827 1306.45 40.2796C1306.45 37.9764 1304.59 36.1094 1302.29 36.1094C1299.99 36.1094 1298.13 37.9764 1298.13 40.2796C1298.13 42.5827 1299.99 44.4498 1302.29 44.4498Z" stroke="white" stroke-width="0.75" stroke-miterlimit="10"/>
<path d="M1305.65 55.3493C1307.94 55.3493 1309.81 53.4822 1309.81 51.179C1309.81 48.8759 1307.94 47.0088 1305.65 47.0088C1303.35 47.0088 1301.49 48.8759 1301.49 51.179C1301.49 53.4822 1303.35 55.3493 1305.65 55.3493Z" stroke="white" stroke-width="0.75" stroke-miterlimit="10"/>
<path d="M1294.54 59.1878C1296.84 59.1878 1298.7 57.3207 1298.7 55.0175C1298.7 52.7144 1296.84 50.8474 1294.54 50.8474C1292.24 50.8474 1290.38 52.7144 1290.38 55.0175C1290.38 57.3207 1292.24 59.1878 1294.54 59.1878Z" stroke="white" stroke-width="0.75" stroke-miterlimit="10"/>
<path d="M1260.56 32.8396L1257.49 40.6114L1251.11 38.0523L1248.56 44.4498L1240.81 41.3222L1243.36 34.9247L1237.02 32.3657L1240.1 24.6413L1246.48 27.2003L1249.03 20.8028L1256.73 23.9305L1254.18 30.2806L1260.56 32.8396Z" stroke="white" stroke-width="0.75" stroke-miterlimit="10"/>
<path d="M1388.28 17.3582C1387.41 12.835 1383.05 9.8744 1378.54 10.7454C1374.03 11.6165 1371.08 15.9893 1371.95 20.5125L1375.68 39.9636C1376.55 44.4868 1380.91 47.4475 1385.42 46.5765C1389.93 45.7055 1392.89 41.3325 1392.02 36.8094L1388.28 17.3582Z" stroke="white" stroke-width="0.75" stroke-miterlimit="10"/>
<path d="M1392.21 58.9721L1394.62 70.8667C1394.86 72.0988 1394.1 73.2362 1392.88 73.5205L1391.32 73.8522C1390.09 74.0891 1388.95 73.3309 1388.72 72.0988L1386.35 60.4411C1385.65 60.4885 1384.94 60.5359 1384.18 60.5359C1372.22 60.5359 1362.58 50.8213 1362.58 38.8793C1362.58 38.7371 1362.58 38.5949 1362.58 38.4527C1364.57 37.4575 1366.93 36.9363 1369.43 37.6945C1369.43 38.0737 1369.39 38.5002 1369.39 38.8793C1369.39 47.0775 1376 53.7119 1384.18 53.7119C1392.36 53.7119 1398.97 47.0775 1398.97 38.8793C1398.97 36.5098 1398.41 34.2825 1397.46 32.3396C1398.78 31.0601 1400.77 29.9228 1403.6 29.3067C1405.02 32.1974 1405.83 35.4673 1405.83 38.8793C1405.83 47.9779 1400.2 55.797 1392.26 58.9721H1392.21Z" stroke="white" stroke-width="0.75" stroke-miterlimit="10"/>
<path d="M1419.37 108.915L1438.32 120.62C1439.17 121.141 1440.31 120.81 1440.69 119.909L1459.07 79.6288C1459.45 78.7758 1459.07 77.8281 1458.27 77.449L1454.44 75.6008C1453.59 75.1743 1452.6 75.6008 1452.22 76.4538L1438.13 108.963C1437.76 109.863 1436.67 110.242 1435.77 109.768L1423.06 102.612C1422.25 102.186 1421.26 102.423 1420.79 103.229L1418.8 106.688C1418.38 107.446 1418.61 108.489 1419.37 108.963V108.915Z" stroke="white" stroke-width="0.75" stroke-miterlimit="10"/>
<path d="M1452.22 103.75L1454.01 104.745C1454.86 105.219 1455.95 104.84 1456.38 103.939L1470.46 71.4306C1470.84 70.5776 1471.83 70.1984 1472.68 70.5776L1476.51 72.4258C1477.31 72.8049 1477.69 73.8 1477.31 74.6056L1458.93 114.886C1458.5 115.787 1457.41 116.118 1456.56 115.597L1448.39 110.574C1447.96 110.289 1447.82 109.768 1448.06 109.294L1450.89 104.081C1451.13 103.608 1451.74 103.465 1452.22 103.702V103.75Z" stroke="white" stroke-width="0.75" stroke-miterlimit="10"/>
<path d="M65.4863 134.397C78.041 134.397 88.2187 124.192 88.2187 111.603C88.2187 99.0145 78.041 88.8093 65.4863 88.8093C52.9315 88.8093 42.7539 99.0145 42.7539 111.603C42.7539 124.192 52.9315 134.397 65.4863 134.397Z" stroke="#231F20" stroke-width="0.75" stroke-miterlimit="10"/>
<path d="M57.5947 101.889L62.7461 122.361C62.8406 122.787 63.3605 122.929 63.6441 122.598L76.877 109.186C77.1606 108.902 77.0661 108.428 76.688 108.286L58.3036 101.225C57.8783 101.083 57.5002 101.462 57.5947 101.841V101.889Z" stroke="#231F20" stroke-width="0.75" stroke-miterlimit="10"/>
<path d="M1530.94 47.6091C1543.5 47.6091 1553.68 37.4038 1553.68 24.815C1553.68 12.2262 1543.5 2.02103 1530.94 2.02103C1518.39 2.02103 1508.21 12.2262 1508.21 24.815C1508.21 37.4038 1518.39 47.6091 1530.94 47.6091Z" stroke="white" stroke-width="0.75" stroke-miterlimit="10"/>
<path d="M1523.05 15.1004L1528.2 35.5723C1528.3 35.9988 1528.82 36.141 1529.1 35.8093L1542.33 22.3983C1542.62 22.1139 1542.52 21.64 1542.15 21.4979L1523.76 14.4369C1523.34 14.2948 1522.96 14.6739 1523.05 15.053V15.1004Z" stroke="white" stroke-width="0.75" stroke-miterlimit="10"/>
<path d="M1539.11 100.013C1536.8 95.0374 1537.18 92.0046 1542.14 89.6825C1547.1 87.3604 1549.7 88.3556 1552.06 93.3315C1554.43 98.3073 1555.56 105.321 1550.6 107.643C1545.64 109.965 1541.48 104.942 1539.16 100.013H1539.11Z" stroke="white" stroke-width="0.75" stroke-miterlimit="10"/>
<path d="M1596.25 82.7638C1594.17 78.3566 1594.5 75.6555 1598.95 73.5703C1603.39 71.4852 1605.66 72.433 1607.74 76.8402C1609.82 81.2473 1610.86 87.5027 1606.46 89.5878C1602.07 91.6729 1598.33 87.2183 1596.3 82.8112L1596.25 82.7638Z" stroke="white" stroke-width="0.75" stroke-miterlimit="10"/>
<path d="M1562.75 87.3605C1559.53 80.4891 1560.05 76.3188 1566.9 73.0964C1573.76 69.874 1577.35 71.2956 1580.56 78.167C1583.78 85.0384 1585.38 94.7057 1578.53 97.9282C1571.68 101.151 1565.96 94.2318 1562.7 87.3605H1562.75Z" stroke="white" stroke-width="0.75" stroke-miterlimit="10"/>
<path d="M1610.71 116.599C1611.47 118.211 1612.04 119.822 1612.46 121.48C1591.57 132.38 1571.54 136.124 1562.27 137.308C1557.36 124.513 1563.08 109.87 1575.65 103.947C1588.22 98.0229 1604.52 103.378 1610.71 116.599Z" stroke="white" stroke-width="0.75" stroke-miterlimit="10"/>
<path d="M1597.62 98.639C1597.62 98.639 1614.83 84.4224 1625.22 98.0704C1625.22 98.0704 1629.1 104.089 1629.29 106.695L1613.64 114.088C1613.64 114.088 1610.01 101.056 1597.62 98.639Z" stroke="white" stroke-width="0.75" stroke-miterlimit="10"/>
<path d="M1561.37 110.676C1561.37 110.676 1550.93 108.401 1543.75 116.599C1539.82 121.054 1538.22 127.214 1539.35 133.043C1539.59 134.181 1539.87 135.413 1540.34 136.645L1556.98 131.479C1556.98 131.479 1553.34 118.827 1561.37 110.628V110.676Z" stroke="white" stroke-width="0.75" stroke-miterlimit="10"/>
<path d="M1689.05 41.1701L1656.39 66.1914C1653.84 68.1817 1650.16 67.6604 1648.17 65.1014L1642.83 58.0879C1640.85 55.5289 1641.37 51.8326 1643.92 49.8422L1676.67 24.7735H1676.76L1677.19 28.9438L1682.44 30.0811L1680.69 33.6353L1686.88 34.7726L1684.23 38.848L1689.05 41.0279C1689.05 41.0279 1689.15 41.1701 1689.05 41.2175V41.1701Z" stroke="white" stroke-width="0.75" stroke-miterlimit="10"/>
<path d="M1676.72 24.6788L1695.34 22.4515C1695.95 22.3567 1696.42 22.9728 1696.19 23.5888L1689.19 41.0279" stroke="white" stroke-width="0.75" stroke-miterlimit="10"/>
<path d="M1690.75 23.0202C1690.75 23.0202 1690.23 27.38 1694.63 27.4274" stroke="white" stroke-width="0.75" stroke-miterlimit="10"/>
<path d="M1655.78 40.6962C1655.78 40.6962 1657.62 52.3065 1667.74 57.4244" stroke="white" stroke-width="0.75" stroke-miterlimit="10"/>
<path d="M1648.55 46.2407C1648.55 46.2407 1649.83 56.5714 1662.07 61.8316" stroke="white" stroke-width="0.75" stroke-miterlimit="10"/>
<path d="M1754.77 123.541L1716.07 130.744C1714.22 131.076 1712.43 129.844 1712.05 127.995L1706.85 99.8939C1706.52 98.0458 1707.75 96.245 1709.59 95.8659L1751.32 87.8098L1756.1 86.7672L1752.93 94.9181L1757.47 119.513C1757.8 121.361 1756.57 123.162 1754.73 123.541H1754.77Z" stroke="white" stroke-width="0.75" stroke-miterlimit="10"/>
<path d="M1743.3 98.3835L1716.07 103.193C1715.05 103.374 1714.36 104.357 1714.54 105.388C1714.72 106.419 1715.7 107.108 1716.73 106.926L1743.96 102.117C1744.99 101.935 1745.67 100.952 1745.49 99.9214C1745.31 98.8904 1744.33 98.2019 1743.3 98.3835Z" stroke="white" stroke-width="0.75" stroke-miterlimit="10"/>
<path d="M1737.14 111.041L1718.43 114.345C1717.4 114.527 1716.71 115.51 1716.89 116.541C1717.07 117.572 1718.05 118.261 1719.08 118.079L1737.79 114.774C1738.82 114.593 1739.51 113.61 1739.33 112.579C1739.15 111.548 1738.17 110.859 1737.14 111.041Z" stroke="white" stroke-width="0.75" stroke-miterlimit="10"/>
<path d="M1808.55 75.2356L1834.78 75.8043C1834.78 75.8043 1835.01 75.5673 1834.87 75.4726L1814.83 63.1041C1806.61 58.0335 1810.91 53.1998 1810.91 53.1998C1810.91 53.1998 1834.63 18.8903 1839.6 13.0141C1844.56 7.13785 1850.47 9.74429 1850.47 9.74429C1850.47 9.74429 1864.31 18.3216 1873.2 23.8661C1882.08 29.4106 1880 36.7559 1880 36.7559L1879.72 41.5422C1879.63 43.2482 1879.81 44.9542 1880.33 46.6128C1880.67 47.608 1881.04 48.84 1881.52 50.2617C1884.59 59.8342 1890.35 77.7472 1892.39 83.6708C1895.17 91.8691 1886.1 94.4281 1886.1 94.4281C1886.1 94.4281 1837.09 111.062 1829.62 112.91C1822.16 114.758 1819.37 106.607 1819.37 106.607C1819.37 106.607 1804.91 65.1892 1802.54 57.2278C1801.08 52.1572 1801.46 48.2714 1801.93 46.0915C1802.17 45.0016 1802.64 43.959 1803.35 43.0586L1824.9 14.5779C1825.8 13.3932 1826.98 12.4928 1828.35 11.9716C1830.62 11.1186 1834.35 10.6446 1839.5 13.0141" stroke="#231F20" stroke-width="0.75" stroke-miterlimit="10"/>
<path d="M1826.27 113.099C1826.27 113.099 1821.59 112.341 1823.95 107.792C1826.32 103.243 1835.44 75.8044 1835.44 75.8044C1835.44 75.8044 1849.43 64.7155 1857.37 65.2841C1865.31 65.8528 1867.39 67.8431 1867.39 67.8431L1893 85.14" stroke="#231F20" stroke-width="0.75" stroke-miterlimit="10"/>
<path d="M1881.56 50.2618L1862.75 65.8527C1862.75 65.8527 1862.66 65.8527 1862.71 65.8053L1880.05 36.756" stroke="#231F20" stroke-width="0.75" stroke-miterlimit="10"/>
<path d="M1837.23 42.3549L1837.19 42.3273C1836.53 41.8542 1835.62 42.005 1835.15 42.6641L1829.19 50.9797C1828.72 51.6388 1828.87 52.5567 1829.53 53.0298L1829.57 53.0574C1830.22 53.5305 1831.14 53.3797 1831.61 52.7206L1837.56 44.405C1838.04 43.7459 1837.89 42.828 1837.23 42.3549Z" stroke="#231F20" stroke-width="0.75" stroke-miterlimit="10"/>
<path d="M1855.3 33.0927L1855.27 33.0651C1854.61 32.592 1853.69 32.7429 1853.22 33.402L1836.74 56.4239C1836.27 57.083 1836.42 58.0008 1837.08 58.4739L1837.12 58.5015C1837.77 58.9746 1838.69 58.8239 1839.16 58.1648L1855.64 35.1429C1856.11 34.4838 1855.96 33.5658 1855.3 33.0927Z" stroke="#231F20" stroke-width="0.75" stroke-miterlimit="10"/>
<path d="M1755.96 14.2863C1755.96 15.3289 1755.11 16.1819 1754.07 16.1819C1753.03 16.1819 1752.18 15.3289 1752.18 14.2863C1752.18 13.2438 1753.03 12.3908 1754.07 12.3908C1755.11 12.3908 1755.96 13.2438 1755.96 14.2863Z" stroke="white" stroke-width="0.75" stroke-miterlimit="10"/>
<path d="M1743.57 34.9952C1743.67 35.5165 1744.19 38.9285 1740.74 43.9991C1736.96 49.5436 1742.3 48.0271 1742.3 48.0271C1742.3 48.0271 1764.98 44.71 1770.04 43.9991C1775.1 43.2883 1778.03 40.9188 1774.06 39.5919C1770.09 38.265 1769 33.4788 1769 33.4788C1768.86 33.0523 1768.91 32.531 1768.91 32.531C1768.95 32.0097 1769 31.4411 1769 30.9198C1769 24.0958 1763.85 18.5513 1757.19 17.8879C1758.27 16.9875 1758.98 15.6132 1758.98 14.0967C1758.98 11.3956 1756.76 9.1683 1754.07 9.1683C1751.37 9.1683 1749.15 11.3482 1749.15 14.0967C1749.15 15.9923 1750.24 17.6983 1751.85 18.5039C1746.65 20.2099 1742.91 25.1384 1742.91 30.9198C1742.91 32.3415 1743.15 33.6684 1743.53 34.9005L1743.57 34.9952ZM1754.07 16.2293C1753.03 16.2293 1752.18 15.3763 1752.18 14.3337C1752.18 13.2912 1753.03 12.4381 1754.07 12.4381C1755.11 12.4381 1755.96 13.2912 1755.96 14.3337C1755.96 15.3763 1755.11 16.2293 1754.07 16.2293Z" stroke="white" stroke-width="0.75" stroke-miterlimit="10"/>
<path d="M1753.03 46.4634C1753.36 48.6907 1755.3 50.444 1757.61 50.444C1760.16 50.444 1762.24 48.3589 1762.24 45.7999C1762.24 45.5629 1762.24 45.3734 1762.24 45.1364" stroke="white" stroke-width="0.75" stroke-miterlimit="10"/>
<path d="M1007.88 8.32207L943.129 26.7007C936.875 28.4756 933.243 34.9968 935.017 41.2664L939.247 56.22C941.021 62.4895 947.528 66.1331 953.781 64.3583L1018.54 45.9796C1024.79 44.2048 1028.42 37.6835 1026.65 31.414L1022.42 16.4604C1020.64 10.1908 1014.14 6.5472 1007.88 8.32207Z" stroke="#231F20" stroke-width="0.75" stroke-miterlimit="10"/>
<path d="M954.19 64.2174L1019.44 45.6787C1020.16 48.2319 1018.7 50.865 1016.15 51.5885L960.084 67.5175C957.538 68.241 954.912 66.7706 954.19 64.2174Z" stroke="#231F20" stroke-width="0.75" stroke-miterlimit="10"/>
<path d="M947.501 44.2016L944.808 34.6291" stroke="#231F20" stroke-width="0.75" stroke-miterlimit="10"/>
<path d="M951.377 57.9918L948.258 46.808" stroke="#231F20" stroke-width="0.75" stroke-miterlimit="10"/>
<path d="M963.003 54.6746L951.377 57.9918" stroke="#231F20" stroke-width="0.75" stroke-miterlimit="10"/>
<path d="M959.837 43.4908L963.003 54.6746" stroke="#231F20" stroke-width="0.75" stroke-miterlimit="10"/>
<path d="M956.386 31.3119L959.032 40.5527" stroke="#231F20" stroke-width="0.75" stroke-miterlimit="10"/>
<path d="M944.808 34.6291L956.386 31.3119" stroke="#231F20" stroke-width="0.75" stroke-miterlimit="10"/>
<path d="M975.432 38.4676L963.806 41.7848" stroke="#231F20" stroke-width="0.75" stroke-miterlimit="10"/>
<path d="M972.125 26.8573L975.433 38.4676" stroke="#231F20" stroke-width="0.75" stroke-miterlimit="10"/>
<path d="M960.498 30.1271L972.124 26.8573" stroke="#231F20" stroke-width="0.75" stroke-miterlimit="10"/>
<path d="M963.806 41.7848L960.498 30.1271" stroke="#231F20" stroke-width="0.75" stroke-miterlimit="10"/>
<path d="M978.741 50.1252L967.115 53.4425" stroke="#231F20" stroke-width="0.75" stroke-miterlimit="10"/>
<path d="M975.479 38.7045L978.74 50.1252" stroke="#231F20" stroke-width="0.75" stroke-miterlimit="10"/>
<path d="M997.078 19.0382L1000.39 30.6958L988.76 34.013" stroke="#231F20" stroke-width="0.75" stroke-miterlimit="10"/>
<path d="M985.499 22.3554L997.078 19.0382" stroke="#231F20" stroke-width="0.75" stroke-miterlimit="10"/>
<path d="M988.76 34.013L1000.39 30.6958" stroke="#231F20" stroke-width="0.75" stroke-miterlimit="10"/>
<path d="M992.068 45.6707L988.76 34.013" stroke="#231F20" stroke-width="0.75" stroke-miterlimit="10"/>
<path d="M1003.7 42.3535L992.069 45.6707" stroke="#231F20" stroke-width="0.75" stroke-miterlimit="10"/>
<path d="M1005.21 29.3216L1001.9 17.7113" stroke="#231F20" stroke-width="0.75" stroke-miterlimit="10"/>
<path d="M1016.83 26.0517L1005.21 29.3215" stroke="#231F20" stroke-width="0.75" stroke-miterlimit="10"/>
<path d="M1013.52 14.394L1016.83 26.0517" stroke="#231F20" stroke-width="0.75" stroke-miterlimit="10"/>
<path d="M1001.9 17.7113L1013.52 14.394" stroke="#231F20" stroke-width="0.75" stroke-miterlimit="10"/>
<path d="M1008.8 42.1165L1005.54 30.4589" stroke="#231F20" stroke-width="0.75" stroke-miterlimit="10"/>
<path d="M1020.42 38.7993L1008.8 42.1165" stroke="#231F20" stroke-width="0.75" stroke-miterlimit="10"/>
<path d="M1017.12 27.1417L1020.43 38.7993" stroke="#231F20" stroke-width="0.75" stroke-miterlimit="10"/>
<path d="M1005.54 30.4589L1017.12 27.1417" stroke="#231F20" stroke-width="0.75" stroke-miterlimit="10"/>
<path d="M983.185 32.5592C982.968 31.6694 982.072 31.1246 981.185 31.3423C980.298 31.5601 979.754 32.4579 979.971 33.3476C980.188 34.2374 981.084 34.7822 981.971 34.5645C982.859 34.3468 983.402 33.449 983.185 32.5592Z" stroke="#231F20" stroke-width="0.75" stroke-miterlimit="10"/>
<path d="M984.658 37.9788C984.441 37.0891 983.546 36.5442 982.659 36.762C981.771 36.9797 981.228 37.8775 981.445 38.7673C981.662 39.6571 982.557 40.2019 983.445 39.9841C984.332 39.7664 984.875 38.8686 984.658 37.9788Z" stroke="#231F20" stroke-width="0.75" stroke-miterlimit="10"/>
<path d="M18.4101 31.708C18.4101 31.708 13.306 24.5522 3.61755 30.1915C-6.07088 35.8308 13.8259 47.7254 19.6862 29.8598C25.5465 11.9942 26.3026 1 26.3026 1H59.3851H59.4324C59.3378 1.61605 53.2412 36.0677 44.1199 41.6596C34.9986 47.2515 28.0513 30.9024 43.8836 31.4236C43.8836 31.4236 45.8686 31.5658 51.02 31.5658" stroke="#231F20" stroke-width="0.75" stroke-miterlimit="10"/>
<path d="M24.4121 12.6577H56.9747" stroke="#231F20" stroke-width="0.75" stroke-miterlimit="10"/>
<path d="M404.559 95.9693C404.559 97.0119 403.708 97.8649 402.669 97.8649C401.629 97.8649 400.778 97.0119 400.778 95.9693C400.778 94.9268 401.629 94.0738 402.669 94.0738C403.708 94.0738 404.559 94.9268 404.559 95.9693Z" stroke="#231F20" stroke-width="0.75" stroke-miterlimit="10"/>
<path d="M392.176 116.678C392.271 117.2 392.791 120.612 389.341 125.682C385.56 131.227 390.9 129.71 390.9 129.71C390.9 129.71 413.586 126.393 418.642 125.682C423.699 124.971 426.629 122.602 422.66 121.275C418.69 119.948 417.603 115.162 417.603 115.162C417.461 114.735 417.508 114.214 417.508 114.214C417.555 113.693 417.603 113.124 417.603 112.603C417.603 105.779 412.451 100.234 405.788 99.5709C406.875 98.6705 407.583 97.2962 407.583 95.7798C407.583 93.0786 405.362 90.8513 402.668 90.8513C399.974 90.8513 397.753 93.0312 397.753 95.7798C397.753 97.6753 398.84 99.3813 400.447 100.187C395.248 101.893 391.515 106.821 391.515 112.603C391.515 114.024 391.751 115.351 392.129 116.583L392.176 116.678ZM402.668 97.9123C401.629 97.9123 400.778 97.0593 400.778 96.0167C400.778 94.9742 401.629 94.1212 402.668 94.1212C403.708 94.1212 404.559 94.9742 404.559 96.0167C404.559 97.0593 403.708 97.9123 402.668 97.9123Z" stroke="#231F20" stroke-width="0.75" stroke-miterlimit="10"/>
<path d="M401.629 128.146C401.96 130.374 403.897 132.127 406.213 132.127C408.765 132.127 410.845 130.042 410.845 127.483C410.845 127.246 410.845 127.056 410.845 126.819" stroke="#231F20" stroke-width="0.75" stroke-miterlimit="10"/>
<path d="M209.711 123.913L212.828 134.971C213.202 136.28 214.506 137.062 215.75 136.716L241.286 129.45C242.53 129.089 243.234 127.735 242.86 126.426L239.743 115.368C237.195 114.947 235.397 111.878 235.397 111.878C235.397 111.878 233.104 104.115 232.325 101.016C231.545 97.9167 233.853 94.5467 233.853 94.5467L230.736 83.4891C230.361 82.1802 229.058 81.3979 227.814 81.7439L202.278 89.0104C201.034 89.3714 200.329 90.7254 200.704 92.0343L203.821 103.092C203.821 103.092 207.733 104.702 208.542 106.958C209.351 109.215 211.629 117.911 211.629 117.911C211.629 117.911 212.198 121.446 209.696 123.898L209.711 123.913Z" stroke="black" stroke-miterlimit="10"/>
<path d="M210.52 90.5597L222.299 87.2048L230.93 117.745L234.917 118.648L237.255 126.937L221.999 131.285L210.52 90.5597Z" stroke="black" stroke-miterlimit="10"/>
<path d="M218.554 88.2731L230.048 128.998" stroke="black" stroke-miterlimit="10"/>
<path d="M220.29 111.893C221.441 111.893 222.373 110.957 222.373 109.802C222.373 108.647 221.441 107.711 220.29 107.711C219.14 107.711 218.207 108.647 218.207 109.802C218.207 110.957 219.14 111.893 220.29 111.893Z" stroke="black" stroke-miterlimit="10"/>
<path d="M548.245 16.8691L541.02 23.8642C540.381 24.4805 539.998 25.3209 539.958 26.2093L539.727 31.0835L539.782 35.9337C539.79 36.8221 540.142 37.6785 540.756 38.3188L557.25 55.4465C559.39 57.6715 562.926 57.7355 565.153 55.5825L575.699 45.3779C577.919 43.225 577.983 39.6794 575.843 37.4544L556.148 17.0052C554.001 14.7801 550.464 14.7161 548.245 16.8691ZM561.96 28.7705L548.875 41.4322L543.95 36.3178C543.247 35.5895 542.848 34.6211 542.832 33.6126L542.792 31.0675L542.84 28.8585C542.864 27.81 543.303 26.8096 544.054 26.0812L551.981 18.3978L561.96 28.7624V28.7705Z" stroke="black" stroke-miterlimit="10"/>
</svg>
