<svg width="120" height="74" viewBox="0 0 120 74" fill="none" xmlns="http://www.w3.org/2000/svg">
<g clip-path="url(#clip0_2427_11476)">
<path d="M49.709 50.5607H86.0752C90.362 50.5607 93.8254 47.5231 93.8254 43.7757V6.78495C93.8254 3.03762 90.362 0 86.0752 0H7.72179C3.46345 0 0 3.03762 0 6.78495V43.7757C0 47.5231 3.46345 50.5607 7.75018 50.5607H39.2335L38.1831 62.1717L49.709 50.5607Z" fill="#1488CC"/>
<path d="M120 62.3421V37.0192C120 34.6629 117.842 32.7609 115.174 32.7609H97.3455V46.1037C97.3455 50.1349 93.5982 53.3996 88.9992 53.3996H65.4932V62.3137C65.4932 64.6416 67.6507 66.5721 70.3477 66.5721H94.2511L101.462 73.8396L100.809 66.5721H115.174C117.842 66.6005 120 64.6984 120 62.3421Z" fill="#F2C600"/>
</g>
<defs>
<clipPath id="clip0_2427_11476">
<rect width="120" height="73.868" fill="white"/>
</clipPath>
</defs>
</svg>
