<svg width="120" height="82" viewBox="0 0 120 82" fill="none" xmlns="http://www.w3.org/2000/svg">
<g clip-path="url(#clip0_2427_32095)">
<path d="M95.5815 62.8378V81.4864C86.8155 80.8414 78.0215 80.3927 69.1995 80.2245C67.8272 80.1964 66.4269 80.1684 65.0266 80.1684C63.0661 80.1403 61.1057 80.1403 59.1452 80.1403C56.3166 80.1403 53.4879 80.1684 50.6313 80.2245C50.1272 80.2245 49.6231 80.2525 49.091 80.2525C40.297 80.4208 31.475 80.8695 22.709 81.5145V62.8378C31.531 63.5108 40.325 63.9314 49.147 64.0997C49.6511 64.0997 50.1552 64.1278 50.6873 64.1278C53.516 64.1838 56.3446 64.2119 59.2012 64.2119C61.1617 64.2119 63.1221 64.2119 65.0826 64.1838C66.4829 64.1558 67.8552 64.1558 69.2555 64.0997C78.0215 63.9314 86.8155 63.4828 95.5815 62.8378Z" fill="#AEE1FF"/>
<path d="M69.2277 80.2244C67.8554 80.1964 66.4551 80.1684 65.0547 80.1684C63.0943 80.1403 61.1339 80.1403 59.1734 80.1403C56.3448 80.1403 53.4881 80.1684 50.6595 80.2244C50.1554 80.2244 49.6513 80.2525 49.1191 80.2525C49.7353 77.6164 50.0433 74.8963 50.0433 72.2041C50.0433 69.512 49.7353 66.7918 49.1191 64.1558C49.6233 64.1558 50.1274 64.1838 50.6595 64.1838C53.4881 64.2399 56.3168 64.2679 59.1734 64.2679C61.1339 64.2679 63.0943 64.2679 65.0547 64.2399C66.4551 64.2118 67.8274 64.2118 69.2277 64.1838C67.9674 69.3718 67.9674 74.9243 69.2277 80.2244Z" fill="#07092E"/>
<path opacity="0.05" d="M22.7656 72.1481V81.4584C31.5316 80.8134 40.3256 80.3647 49.1476 80.1964C49.6517 80.1964 50.1558 80.1684 50.6879 80.1684C53.5166 80.1123 56.3452 80.0843 59.2019 80.0843C61.1623 80.0843 63.1227 80.0843 65.0832 80.1123C66.4835 80.1123 67.8558 80.1403 69.2561 80.1684C78.0501 80.3367 86.8721 80.7853 95.6381 81.4303V72.1481H22.7656Z" fill="#787263"/>
<path d="M99.6987 72.148C99.6987 73.6343 99.5587 75.0365 99.2786 76.2704C98.6065 79.3551 97.2061 81.4583 95.5818 81.4583C95.0777 81.4583 94.6296 81.262 94.1815 80.8975C93.2292 80.1123 92.4731 78.5979 91.969 76.6349C91.6329 75.2889 91.4648 73.7745 91.4648 72.12C91.4648 71.7554 91.4648 71.4189 91.4929 71.0824C91.6329 68.3342 92.277 65.9505 93.2292 64.4642C93.5093 64.0155 93.8174 63.651 94.1535 63.3706C94.6016 63.006 95.0777 62.8097 95.5538 62.8097C96.478 62.8097 97.3462 63.5108 98.0463 64.7166C98.9145 66.2309 99.5307 68.5024 99.6427 71.1104C99.6987 71.475 99.6987 71.8115 99.6987 72.148Z" fill="#A7DFFF"/>
<path d="M96.8981 72.1481C96.8981 73.6344 96.758 75.0365 96.478 76.2704C96.0019 78.4017 95.1897 80.0843 94.1815 80.8975C93.2292 80.1123 92.4731 78.598 91.969 76.635C91.6329 75.2889 91.4648 73.7746 91.4648 72.12C91.4648 68.9512 92.165 66.1469 93.2292 64.4643C93.5093 64.0156 93.8174 63.651 94.1535 63.3706C94.5455 63.6791 94.9096 64.1558 95.2457 64.7167C96.2539 66.4553 96.8981 69.1194 96.8981 72.1481Z" fill="#3E6A83"/>
<path d="M101.351 71.1105C101.351 72.765 101.183 74.3074 100.875 75.7095C100.119 79.1308 98.5785 81.4864 96.786 81.4864H95.5818C95.0777 81.4864 94.6296 81.2901 94.1815 80.9256C93.2292 80.1403 92.4731 78.626 91.969 76.663C91.6329 75.3169 91.4648 73.8026 91.4648 72.1481C91.4648 71.7835 91.4648 71.447 91.4929 71.1105H101.351Z" fill="#8EB6CC"/>
<path opacity="0.05" d="M93.8734 77.4763C93.5093 75.9339 93.2853 74.1952 93.2853 72.3163C93.2853 71.9237 93.2853 71.5031 93.3133 71.1105H91.4929C91.4648 71.447 91.4648 71.8116 91.4648 72.1481C91.4648 73.7746 91.6609 75.3169 91.969 76.663C92.4451 78.626 93.2292 80.1403 94.1815 80.9256C94.6296 81.2901 95.0777 81.4864 95.5818 81.4864C94.8816 80.5049 94.2935 79.1308 93.8734 77.4763Z" fill="#5A4F53"/>
<path d="M22.7654 62.8378C23.6896 62.8378 24.5578 63.5388 25.2579 64.7447C26.2382 66.4553 26.8823 69.1475 26.8823 72.1761C26.8823 73.6624 26.7423 75.0646 26.4622 76.2984C25.7901 79.3832 24.3897 81.4864 22.7654 81.4864C21.225 81.4864 19.8807 79.5514 19.1526 76.663C18.8445 75.3169 18.6484 73.8026 18.6484 72.1481C18.6484 68.9792 19.3486 66.1749 20.4128 64.4923C21.085 63.4547 21.8972 62.8378 22.7654 62.8378Z" fill="#3E6A83"/>
</g>
<g clip-path="url(#clip1_2427_32095)">
<path d="M59.7366 0L0 31.0667L0.0526778 32.438L49.4644 40.6135L120 9.01936L119.947 7.64799L59.7366 0Z" fill="#07092E"/>
<path d="M59.7894 1.37134L0.0527344 32.438L49.4645 40.6135L120 9.01933L59.7894 1.37134Z" fill="#AEE1FF"/>
<path d="M97.4541 44.9913L63.3189 51.6371L35.4524 57.0698L29.7632 27.7437C29.1837 24.79 42.6166 19.7265 59.7368 16.4036C76.8571 13.0807 91.1855 12.7115 91.7649 15.6652L97.4541 44.9913Z" fill="#13304D"/>
<path d="M105.144 69.7815C105.829 68.2519 106.883 67.1442 107.989 66.564C108.358 66.3531 108.726 66.2476 109.095 66.1948C109.569 66.0893 109.991 66.1421 110.412 66.2476C110.517 66.3003 110.623 66.3003 110.728 66.3531C110.834 66.4058 110.886 66.4058 110.939 66.4586C111.36 66.7223 111.729 67.0387 111.992 67.4607C112.203 67.7772 112.308 68.1464 112.414 68.5683C112.73 69.7815 112.572 71.3111 111.94 72.7879C111.624 73.4736 111.097 74.0538 110.465 74.5285C110.201 74.7395 109.991 74.8977 109.727 75.056C109.411 75.2669 109.042 75.4252 108.726 75.5307C107.884 75.8999 107.093 76.0581 106.725 76.1636C106.514 76.2163 106.409 76.2163 106.409 76.2163C106.409 76.2163 106.303 76.1108 106.198 75.8999C105.987 75.5307 105.671 74.8977 105.355 74.1065C105.25 73.7901 105.144 73.4209 105.039 73.0517C104.986 72.7879 104.934 72.577 104.881 72.3132C104.776 71.4693 104.776 70.5726 105.144 69.7815Z" fill="#DBB400"/>
<path d="M106.146 75.8999L110.412 66.2476C110.518 66.3003 110.623 66.3003 110.728 66.3531C110.834 66.4058 110.887 66.4058 110.939 66.4585L106.672 76.1636C106.462 76.2163 106.356 76.2163 106.356 76.2163C106.356 76.2163 106.251 76.1108 106.146 75.8999Z" fill="#C9A600"/>
<path d="M111.993 67.5134C112.203 67.8299 112.309 68.1991 112.414 68.6211C112.203 69.5705 111.835 70.5726 111.518 71.4165C111.044 72.6824 110.412 73.9483 109.727 75.1087C109.411 75.3197 109.043 75.4779 108.727 75.5834C109.569 74.3703 110.254 73.0516 110.834 71.6275C111.202 70.7309 111.466 69.8342 111.729 68.9375C111.782 68.4628 111.887 67.9881 111.993 67.5134Z" fill="#C9A600"/>
<path d="M106.514 69.1485C106.935 68.3574 107.41 67.408 107.989 66.564C108.358 66.3531 108.727 66.2476 109.095 66.1948C108.779 66.564 108.516 66.986 108.252 67.408C107.726 68.1991 107.252 69.043 106.83 69.887C106.198 71.2583 105.671 72.6824 105.355 74.1593C105.25 73.8428 105.144 73.4736 105.039 73.1044C105.355 71.6803 105.882 70.4144 106.514 69.1485Z" fill="#C9A600"/>
<path d="M115.364 35.4973C113.468 26.1615 108.516 17.6168 101.51 11.182C97.6117 7.5953 93.1868 4.74709 88.3404 2.69004C87.9717 2.5318 87.7083 3.05925 88.077 3.21749C105.777 10.76 117.05 29.0097 115.575 48.2615C115.153 54.0635 113.573 59.7599 110.992 64.9816C110.834 65.2981 111.361 65.6146 111.519 65.2454C116.049 56.0678 117.366 45.5188 115.364 35.4973Z" fill="#F2C600"/>
<path d="M113.415 65.2982C113.363 64.085 112.309 63.1356 111.097 63.1884C109.886 63.2411 108.938 64.296 108.99 65.5091C109.043 66.7223 110.097 67.6717 111.308 67.6189C112.52 67.5662 113.468 66.5113 113.415 65.2982Z" fill="#F2C600"/>
<path opacity="0.2" d="M66.7957 51.0043L35.5051 57.0699L29.7632 27.7438C29.1837 24.7901 42.6166 19.7266 59.7368 16.4037L66.7957 51.0043Z" fill="#07092E"/>
<path d="M97.4542 44.9913C98.0336 47.945 84.6008 53.0085 67.4805 56.3315C50.3603 59.6544 36.0319 60.0236 35.4524 57.0699C35.2944 56.2787 36.1372 55.3821 37.7176 54.3799C42.1952 51.5844 52.7834 48.2088 65.4261 45.7298C78.5955 43.1453 90.0793 42.3541 94.9783 43.4617C96.4533 43.8309 97.3488 44.3056 97.4542 44.9913Z" fill="#1488CC"/>
<path d="M94.9785 43.4617C90.5009 46.2572 79.9127 49.6329 67.27 52.1119C54.1006 54.6964 42.6168 55.4875 37.7178 54.3799C42.1954 51.5844 52.7836 48.2088 65.4263 45.7298C78.5957 43.1453 90.0795 42.3541 94.9785 43.4617Z" fill="#AEE1FF"/>
</g>
<defs>
<clipPath id="clip0_2427_32095">
<rect width="82.7027" height="18.6486" fill="white" transform="translate(18.6484 62.8378)"/>
</clipPath>
<clipPath id="clip1_2427_32095">
<rect width="120" height="76.2162" fill="white"/>
</clipPath>
</defs>
</svg>
