<svg width="554" height="646" viewBox="0 0 554 646" fill="none" xmlns="http://www.w3.org/2000/svg">
<path fill-rule="evenodd" clip-rule="evenodd" d="M62.4396 170.797C51.4881 202.31 47.0181 213.709 48.5826 226.225C49.9236 235.388 59.0871 239.188 59.0871 253.492C59.0871 278.747 -1.03439 335.293 0.977106 353.173C2.31811 365.465 32.7141 373.288 41.2071 389.38C46.5711 399.661 40.7601 415.976 29.1381 428.045C30.2556 440.561 36.0666 442.796 43.2186 444.808C34.9491 447.043 32.4906 455.312 33.3846 463.358C54.6171 469.84 43.2186 483.473 38.7486 498.224C36.2901 506.717 36.2901 517.222 41.8776 528.62C46.3476 537.784 59.3106 539.125 76.5201 540.019C99.0936 541.36 128.372 540.689 160.78 567.509C181.118 584.272 199.445 616.903 207.044 645.734L485.972 644.84C454.235 568.627 433.003 474.086 462.728 447.937C571.796 352.726 615.602 87.431 398.36 16.1345C241.91 -35.2705 104.681 48.3185 62.4396 170.797Z" fill="#031544"/>
</svg>
