<svg width="1920" height="463" viewBox="0 0 1920 463" fill="none" xmlns="http://www.w3.org/2000/svg">
<path d="M1920 216.145V462.668C1920 462.668 1554 462.668 1446.5 462.668C1339 462.668 1133.63 462.668 1005.63 462.668C877.629 462.668 656.058 462.668 447.801 462.668C239.544 462.668 123 462.668 0 462.668V216.145C90.6216 216.145 182.849 198.715 200.063 198.715C210.187 198.715 356.153 216.145 447.801 216.145C539.448 216.145 641.933 191.149 665.257 191.149C698.081 191.149 781.522 215.261 919.461 215.261C1057.4 215.261 1251.53 170.002 1285.65 170.002C1308.88 170.002 1694.96 278.569 1694.96 114.215C1694.96 57.3213 1630.97 42.8989 1576.33 61.126C1568.89 63.6035 1579.68 16.0447 1669.01 1.84344C1758.34 -12.3578 1901 55.1535 1920 216.145Z" fill="#1062AB"/>
</svg>
