<svg width="1920" height="463" viewBox="0 0 1920 463" fill="none" xmlns="http://www.w3.org/2000/svg">
<path d="M1920 216.145V462.668C1920 462.668 1554 462.668 1446.5 462.668C1339 462.668 1133.63 462.668 1005.63 462.668C877.629 462.668 656.058 462.668 447.801 462.668C239.544 462.668 123 462.668 0 462.668V216.145C90.6216 216.145 182.849 198.715 200.063 198.715C210.187 198.715 356.153 216.145 447.801 216.145C539.448 216.145 641.933 191.149 665.257 191.149C698.081 191.149 781.522 215.261 919.461 215.261C1057.4 215.261 1251.53 170.002 1285.65 170.002C1308.88 170.002 1694.96 278.569 1694.96 114.215C1694.96 57.3213 1630.97 42.8989 1576.33 61.126C1568.89 63.6035 1579.68 16.0447 1669.01 1.84344C1758.34 -12.3578 1901 55.1535 1920 216.145Z" fill="#1062AB"/>
<path d="M1370.19 269.22C1420.15 266.765 1469.4 256.448 1516.13 238.652L1539.62 229.766C1551.52 225.589 1565.03 220.124 1578.31 222.524C1581.52 223.101 1587.9 224.567 1591.02 225.545C1646.47 243.894 1700.76 266.554 1760.05 269.131C1726.32 270.271 1692.63 266.041 1660.24 256.602C1635.95 250.159 1612.5 241.007 1588.56 233.987C1584.7 232.899 1580.79 232.009 1576.84 231.321C1556.74 229.277 1537.93 240.918 1518.89 246.516C1471.35 263.915 1420.78 271.635 1370.19 269.22Z" fill="#EBEBEB"/>
<path d="M895.746 300.339C945.713 297.873 994.972 287.506 1041.69 269.625L1065.18 260.722C1077.08 256.271 1090.58 251.018 1103.87 253.467C1107.08 254.001 1113.45 255.514 1116.57 256.449C1172.02 274.833 1226.36 297.579 1285.6 300.116C1251.9 301.265 1218.23 296.996 1185.89 287.475C1161.59 281.065 1138.15 271.851 1114.21 264.818C1111.31 263.972 1105.29 262.636 1102.49 262.147C1082.38 260.099 1063.57 271.806 1044.54 277.415C996.96 294.843 946.365 302.562 895.746 300.116V300.339Z" fill="#EBEBEB"/>
<path d="M53.2704 277.081C82.7802 274.594 111.783 267.837 139.389 257.018C152.353 252.519 167.056 243.747 181.268 248.021C215.795 258.907 248.541 274.247 285.207 277.081C265.069 278.512 244.838 276.396 225.418 270.828C209.736 266.915 194.722 260.752 179.218 256.658C177.105 256.189 174.961 255.874 172.803 255.713C162.645 256.523 152.844 261.606 142.24 265.025C113.74 275.455 83.3506 279.567 53.1367 277.081H53.2704Z" fill="#EBEBEB"/>
<path d="M1219.45 252.139C1249.01 249.647 1278.07 242.891 1305.73 232.076C1318.7 227.577 1333.39 218.805 1347.6 223.079C1382.12 233.92 1414.86 249.305 1451.52 252.139C1431.39 253.548 1411.17 251.432 1391.75 245.886C1376.07 241.973 1361.06 235.81 1345.55 231.671C1343.44 231.195 1341.3 230.894 1339.14 230.771C1328.98 231.581 1319.19 236.664 1308.58 240.083C1280.09 250.513 1249.71 254.625 1219.5 252.139H1219.45Z" fill="#EBEBEB"/>
<path d="M823.632 251.648C766.166 253.211 707.72 247.183 653.687 225.84C642.185 221.687 625.645 213.695 613.876 212.445C607.213 212.215 600.576 213.386 594.394 215.883C526.228 245.084 483.252 269.017 405.814 248.299C391.784 244.543 378.01 239.89 364.576 234.368C344.826 227.313 325.879 214.9 305.416 211.73C299.398 211.73 292.443 215.838 286.692 218.473C273.852 224.813 260.924 231.421 247.371 236.556C220.441 247.263 191.632 252.426 162.666 251.737C191.328 250.759 219.537 244.287 245.766 232.671C258.873 227.045 271.445 220.348 284.151 213.561C291.195 210.212 297.124 206.015 305.505 205.658C313.025 206.358 320.392 208.21 327.35 211.15C354.099 221.553 379.956 233.475 407.597 240.53C481.558 259.908 525.961 235.618 591.719 208.649C598.942 205.806 606.72 204.66 614.455 205.301C628.097 207.176 643.166 215.436 655.738 220.214C708.389 242.539 766.122 250.174 823.409 251.737L823.632 251.648Z" fill="#EBEBEB"/>
</svg>
